<mxfile host="app.diagrams.net" agent="Mozilla/5.0 (Windows NT 10.0; Win64; x64) AppleWebKit/537.36 (KHTML, like Gecko) Chrome/139.0.0.0 Safari/537.36" version="28.2.0">
  <diagram name="Use Case" id="OdjPX-IFiGAwIH2K2mgb">
    <mxGraphModel dx="1213" dy="1792" grid="1" gridSize="10" guides="1" tooltips="1" connect="1" arrows="1" fold="1" page="1" pageScale="1" pageWidth="827" pageHeight="1169" math="0" shadow="0">
      <root>
        <mxCell id="jH4gpe4Tn965D2jjeDOP-0" />
        <mxCell id="jH4gpe4Tn965D2jjeDOP-1" parent="jH4gpe4Tn965D2jjeDOP-0" />
        <mxCell id="jH4gpe4Tn965D2jjeDOP-2" value="" style="rounded=0;whiteSpace=wrap;html=1;fontSize=14;" parent="jH4gpe4Tn965D2jjeDOP-1" vertex="1">
          <mxGeometry x="1120" y="-1110" width="1280" height="1120" as="geometry" />
        </mxCell>
        <mxCell id="jH4gpe4Tn965D2jjeDOP-3" value="&lt;font style=&quot;font-size: 16px;&quot;&gt;Пользователь&lt;/font&gt;" style="shape=umlActor;verticalLabelPosition=bottom;verticalAlign=top;html=1;outlineConnect=0;" parent="jH4gpe4Tn965D2jjeDOP-1" vertex="1">
          <mxGeometry x="804" y="-530" width="30" height="60" as="geometry" />
        </mxCell>
        <mxCell id="jH4gpe4Tn965D2jjeDOP-4" value="Посмотреть профиль в личном кабинете" style="ellipse;whiteSpace=wrap;html=1;fontSize=16;" parent="jH4gpe4Tn965D2jjeDOP-1" vertex="1">
          <mxGeometry x="1853" y="-760" width="170" height="90" as="geometry" />
        </mxCell>
        <mxCell id="jH4gpe4Tn965D2jjeDOP-5" value="Авторизоваться&lt;br&gt;в личном кабинете" style="ellipse;whiteSpace=wrap;html=1;fontSize=16;" parent="jH4gpe4Tn965D2jjeDOP-1" vertex="1">
          <mxGeometry x="1500" y="-760" width="170" height="90" as="geometry" />
        </mxCell>
        <mxCell id="jH4gpe4Tn965D2jjeDOP-6" value="&lt;font style=&quot;font-size: 14px;&quot;&gt;&amp;lt;&amp;lt;extend&amp;gt;&amp;gt;&lt;/font&gt;" style="html=1;verticalAlign=bottom;labelBackgroundColor=none;endArrow=open;endFill=0;dashed=1;rounded=0;exitX=0;exitY=0.5;exitDx=0;exitDy=0;entryX=1;entryY=0.5;entryDx=0;entryDy=0;" parent="jH4gpe4Tn965D2jjeDOP-1" source="jH4gpe4Tn965D2jjeDOP-4" target="jH4gpe4Tn965D2jjeDOP-5" edge="1">
          <mxGeometry width="160" relative="1" as="geometry">
            <mxPoint x="1858.5" y="-649.9999999999995" as="sourcePoint" />
            <mxPoint x="1709.5" y="-649.9999999999995" as="targetPoint" />
          </mxGeometry>
        </mxCell>
        <mxCell id="jH4gpe4Tn965D2jjeDOP-7" value="&lt;font style=&quot;font-size: 16px;&quot;&gt;Авторизованный &lt;br&gt;пользователь&lt;/font&gt;" style="shape=umlActor;verticalLabelPosition=bottom;verticalAlign=top;html=1;outlineConnect=0;" parent="jH4gpe4Tn965D2jjeDOP-1" vertex="1">
          <mxGeometry x="1020" y="-240" width="30" height="60" as="geometry" />
        </mxCell>
        <mxCell id="jH4gpe4Tn965D2jjeDOP-8" value="Отредактировать профиль в личном кабинете" style="ellipse;whiteSpace=wrap;html=1;fontSize=16;" parent="jH4gpe4Tn965D2jjeDOP-1" vertex="1">
          <mxGeometry x="2140" y="-860" width="170" height="90" as="geometry" />
        </mxCell>
        <mxCell id="jH4gpe4Tn965D2jjeDOP-9" value="&lt;font style=&quot;font-size: 14px;&quot;&gt;&amp;lt;&amp;lt;extend&amp;gt;&amp;gt;&lt;/font&gt;" style="html=1;verticalAlign=bottom;labelBackgroundColor=none;endArrow=open;endFill=0;dashed=1;rounded=0;exitX=0;exitY=1;exitDx=0;exitDy=0;" parent="jH4gpe4Tn965D2jjeDOP-1" source="jH4gpe4Tn965D2jjeDOP-8" target="jH4gpe4Tn965D2jjeDOP-4" edge="1">
          <mxGeometry width="160" relative="1" as="geometry">
            <mxPoint x="1835" y="-580" as="sourcePoint" />
            <mxPoint x="1755" y="-540" as="targetPoint" />
          </mxGeometry>
        </mxCell>
        <mxCell id="jH4gpe4Tn965D2jjeDOP-10" value="&lt;font style=&quot;font-size: 14px;&quot;&gt;&amp;lt;&amp;lt;extend&amp;gt;&amp;gt;&lt;/font&gt;" style="html=1;verticalAlign=bottom;labelBackgroundColor=none;endArrow=open;endFill=0;dashed=1;rounded=0;entryX=1.001;entryY=0.573;entryDx=0;entryDy=0;exitX=0;exitY=0.5;exitDx=0;exitDy=0;entryPerimeter=0;" parent="jH4gpe4Tn965D2jjeDOP-1" source="jH4gpe4Tn965D2jjeDOP-11" target="jH4gpe4Tn965D2jjeDOP-4" edge="1">
          <mxGeometry width="160" relative="1" as="geometry">
            <mxPoint x="1750" y="-570" as="sourcePoint" />
            <mxPoint x="1699.997772468471" y="-638.8178781311822" as="targetPoint" />
          </mxGeometry>
        </mxCell>
        <mxCell id="jH4gpe4Tn965D2jjeDOP-11" value="Посмотреть историю заказов" style="ellipse;whiteSpace=wrap;html=1;fontSize=16;" parent="jH4gpe4Tn965D2jjeDOP-1" vertex="1">
          <mxGeometry x="2140" y="-709" width="170" height="90" as="geometry" />
        </mxCell>
        <mxCell id="jH4gpe4Tn965D2jjeDOP-12" value="" style="endArrow=block;endSize=16;endFill=0;html=1;rounded=0;" parent="jH4gpe4Tn965D2jjeDOP-1" edge="1">
          <mxGeometry width="160" relative="1" as="geometry">
            <mxPoint x="1010" y="-270" as="sourcePoint" />
            <mxPoint x="870" y="-420" as="targetPoint" />
          </mxGeometry>
        </mxCell>
        <mxCell id="jH4gpe4Tn965D2jjeDOP-13" value="" style="endArrow=block;endSize=16;endFill=0;html=1;rounded=0;" parent="jH4gpe4Tn965D2jjeDOP-1" edge="1">
          <mxGeometry width="160" relative="1" as="geometry">
            <mxPoint x="1010" y="-710" as="sourcePoint" />
            <mxPoint x="870" y="-535" as="targetPoint" />
          </mxGeometry>
        </mxCell>
        <mxCell id="jH4gpe4Tn965D2jjeDOP-14" value="&lt;font style=&quot;font-size: 16px;&quot;&gt;Посмотреть информацию о &lt;font style=&quot;font-size: 16px;&quot;&gt;Товаре&lt;/font&gt;&lt;/font&gt;" style="ellipse;whiteSpace=wrap;html=1;fontSize=16;" parent="jH4gpe4Tn965D2jjeDOP-1" vertex="1">
          <mxGeometry x="1675" y="-540" width="170" height="90" as="geometry" />
        </mxCell>
        <mxCell id="jH4gpe4Tn965D2jjeDOP-15" value="Посмотреть список всех товаров" style="ellipse;whiteSpace=wrap;html=1;fontSize=16;" parent="jH4gpe4Tn965D2jjeDOP-1" vertex="1">
          <mxGeometry x="1200" y="-540" width="170" height="90" as="geometry" />
        </mxCell>
        <mxCell id="jH4gpe4Tn965D2jjeDOP-16" value="Оформить &lt;b&gt;&lt;font style=&quot;font-size: 20px;&quot;&gt;&lt;u&gt;Заказ&lt;/u&gt;&lt;/font&gt;&lt;/b&gt;" style="ellipse;whiteSpace=wrap;html=1;fontSize=16;" parent="jH4gpe4Tn965D2jjeDOP-1" vertex="1">
          <mxGeometry x="1270" y="-310" width="170" height="90" as="geometry" />
        </mxCell>
        <mxCell id="jH4gpe4Tn965D2jjeDOP-17" value="" style="endArrow=none;html=1;rounded=0;entryX=0;entryY=0;entryDx=0;entryDy=0;" parent="jH4gpe4Tn965D2jjeDOP-1" target="jH4gpe4Tn965D2jjeDOP-15" edge="1">
          <mxGeometry width="50" height="50" relative="1" as="geometry">
            <mxPoint x="1070" y="-710" as="sourcePoint" />
            <mxPoint x="1240" y="-897.5" as="targetPoint" />
          </mxGeometry>
        </mxCell>
        <mxCell id="jH4gpe4Tn965D2jjeDOP-18" value="&amp;lt;&amp;lt;extend&amp;gt;&amp;gt;" style="html=1;verticalAlign=bottom;labelBackgroundColor=none;endArrow=open;endFill=0;dashed=1;rounded=0;exitX=0;exitY=0.5;exitDx=0;exitDy=0;entryX=1;entryY=0;entryDx=0;entryDy=0;fontSize=14;" parent="jH4gpe4Tn965D2jjeDOP-1" source="jH4gpe4Tn965D2jjeDOP-35" target="jH4gpe4Tn965D2jjeDOP-15" edge="1">
          <mxGeometry width="160" relative="1" as="geometry">
            <mxPoint x="1263" y="-260" as="sourcePoint" />
            <mxPoint x="1419.9999999999977" y="-275" as="targetPoint" />
          </mxGeometry>
        </mxCell>
        <mxCell id="jH4gpe4Tn965D2jjeDOP-19" value="" style="endArrow=none;html=1;rounded=0;entryX=0;entryY=1;entryDx=0;entryDy=0;" parent="jH4gpe4Tn965D2jjeDOP-1" target="jH4gpe4Tn965D2jjeDOP-15" edge="1">
          <mxGeometry width="50" height="50" relative="1" as="geometry">
            <mxPoint x="1070" y="-270" as="sourcePoint" />
            <mxPoint x="1249.9999999999945" y="-662.5" as="targetPoint" />
          </mxGeometry>
        </mxCell>
        <mxCell id="jH4gpe4Tn965D2jjeDOP-20" value="&lt;font style=&quot;font-size: 16px;&quot;&gt;Зарегистрироваться в личном кабинете&lt;/font&gt;" style="ellipse;whiteSpace=wrap;html=1;" parent="jH4gpe4Tn965D2jjeDOP-1" vertex="1">
          <mxGeometry x="1500" y="-960" width="170" height="90" as="geometry" />
        </mxCell>
        <mxCell id="jH4gpe4Tn965D2jjeDOP-21" value="" style="endArrow=none;html=1;rounded=0;entryX=0;entryY=0.5;entryDx=0;entryDy=0;startArrow=none;" parent="jH4gpe4Tn965D2jjeDOP-1" target="jH4gpe4Tn965D2jjeDOP-22" edge="1">
          <mxGeometry width="50" height="50" relative="1" as="geometry">
            <mxPoint x="1090" y="-780" as="sourcePoint" />
            <mxPoint x="1266.1091270347324" y="-683.7132034356005" as="targetPoint" />
          </mxGeometry>
        </mxCell>
        <mxCell id="jH4gpe4Tn965D2jjeDOP-22" value="&lt;font style=&quot;font-size: 16px;&quot;&gt;Войти в личный кабинет&lt;/font&gt;" style="ellipse;whiteSpace=wrap;html=1;" parent="jH4gpe4Tn965D2jjeDOP-1" vertex="1">
          <mxGeometry x="1210" y="-850" width="170" height="90" as="geometry" />
        </mxCell>
        <mxCell id="jH4gpe4Tn965D2jjeDOP-23" value="&lt;font style=&quot;font-size: 14px;&quot;&gt;&amp;lt;&amp;lt;extend&amp;gt;&amp;gt;&lt;/font&gt;" style="html=1;verticalAlign=bottom;labelBackgroundColor=none;endArrow=open;endFill=0;dashed=1;rounded=0;exitX=0;exitY=0.5;exitDx=0;exitDy=0;entryX=0.785;entryY=0.056;entryDx=0;entryDy=0;entryPerimeter=0;" parent="jH4gpe4Tn965D2jjeDOP-1" source="jH4gpe4Tn965D2jjeDOP-20" target="jH4gpe4Tn965D2jjeDOP-22" edge="1">
          <mxGeometry width="160" relative="1" as="geometry">
            <mxPoint x="1650.0000000000005" y="-560" as="sourcePoint" />
            <mxPoint x="1549.9999999999995" y="-560" as="targetPoint" />
          </mxGeometry>
        </mxCell>
        <mxCell id="jH4gpe4Tn965D2jjeDOP-24" value="&lt;font style=&quot;font-size: 14px;&quot;&gt;&amp;lt;&amp;lt;extend&amp;gt;&amp;gt;&lt;/font&gt;" style="html=1;verticalAlign=bottom;labelBackgroundColor=none;endArrow=open;endFill=0;dashed=1;rounded=0;exitX=0;exitY=0.5;exitDx=0;exitDy=0;entryX=1;entryY=1;entryDx=0;entryDy=0;" parent="jH4gpe4Tn965D2jjeDOP-1" source="jH4gpe4Tn965D2jjeDOP-5" target="jH4gpe4Tn965D2jjeDOP-22" edge="1">
          <mxGeometry width="160" relative="1" as="geometry">
            <mxPoint x="1420.000000000005" y="-830" as="sourcePoint" />
            <mxPoint x="1310.000000000005" y="-760" as="targetPoint" />
          </mxGeometry>
        </mxCell>
        <mxCell id="jH4gpe4Tn965D2jjeDOP-25" value="Ввести количество товара" style="ellipse;whiteSpace=wrap;html=1;fontSize=16;" parent="jH4gpe4Tn965D2jjeDOP-1" vertex="1">
          <mxGeometry x="1683" y="-340" width="170" height="90" as="geometry" />
        </mxCell>
        <mxCell id="jH4gpe4Tn965D2jjeDOP-26" value="Ввести данные о доставке" style="ellipse;whiteSpace=wrap;html=1;fontSize=16;" parent="jH4gpe4Tn965D2jjeDOP-1" vertex="1">
          <mxGeometry x="1620" y="-230" width="170" height="90" as="geometry" />
        </mxCell>
        <mxCell id="jH4gpe4Tn965D2jjeDOP-27" value="Оплатить заказ" style="ellipse;whiteSpace=wrap;html=1;fontSize=16;" parent="jH4gpe4Tn965D2jjeDOP-1" vertex="1">
          <mxGeometry x="1450" y="-150" width="170" height="90" as="geometry" />
        </mxCell>
        <mxCell id="jH4gpe4Tn965D2jjeDOP-28" value="&amp;lt;&amp;lt;include&amp;gt;&amp;gt;" style="html=1;verticalAlign=bottom;labelBackgroundColor=none;endArrow=open;endFill=0;dashed=1;rounded=0;entryX=0;entryY=0.5;entryDx=0;entryDy=0;exitX=1;exitY=0;exitDx=0;exitDy=0;fontSize=14;" parent="jH4gpe4Tn965D2jjeDOP-1" source="jH4gpe4Tn965D2jjeDOP-16" target="jH4gpe4Tn965D2jjeDOP-25" edge="1">
          <mxGeometry width="160" relative="1" as="geometry">
            <mxPoint x="1788" y="-370" as="sourcePoint" />
            <mxPoint x="1913" y="-310" as="targetPoint" />
          </mxGeometry>
        </mxCell>
        <mxCell id="jH4gpe4Tn965D2jjeDOP-29" value="&amp;lt;&amp;lt;include&amp;gt;&amp;gt;" style="html=1;verticalAlign=bottom;labelBackgroundColor=none;endArrow=open;endFill=0;dashed=1;rounded=0;entryX=0;entryY=0.5;entryDx=0;entryDy=0;fontSize=14;exitX=0.982;exitY=0.652;exitDx=0;exitDy=0;exitPerimeter=0;" parent="jH4gpe4Tn965D2jjeDOP-1" source="jH4gpe4Tn965D2jjeDOP-16" target="jH4gpe4Tn965D2jjeDOP-26" edge="1">
          <mxGeometry width="160" relative="1" as="geometry">
            <mxPoint x="1390" y="-75" as="sourcePoint" />
            <mxPoint x="1613.0000000000005" y="-100" as="targetPoint" />
          </mxGeometry>
        </mxCell>
        <mxCell id="jH4gpe4Tn965D2jjeDOP-30" value="&amp;lt;&amp;lt;include&amp;gt;&amp;gt;" style="html=1;verticalAlign=bottom;labelBackgroundColor=none;endArrow=open;endFill=0;dashed=1;rounded=0;exitX=0.5;exitY=1;exitDx=0;exitDy=0;fontSize=14;" parent="jH4gpe4Tn965D2jjeDOP-1" source="jH4gpe4Tn965D2jjeDOP-16" target="jH4gpe4Tn965D2jjeDOP-27" edge="1">
          <mxGeometry width="160" relative="1" as="geometry">
            <mxPoint x="1498" y="-140" as="sourcePoint" />
            <mxPoint x="1613.0000000000005" y="110" as="targetPoint" />
          </mxGeometry>
        </mxCell>
        <mxCell id="jH4gpe4Tn965D2jjeDOP-31" value="" style="endArrow=none;html=1;rounded=0;entryX=0;entryY=0.5;entryDx=0;entryDy=0;" parent="jH4gpe4Tn965D2jjeDOP-1" target="jH4gpe4Tn965D2jjeDOP-16" edge="1">
          <mxGeometry width="50" height="50" relative="1" as="geometry">
            <mxPoint x="1100" y="-200" as="sourcePoint" />
            <mxPoint x="1500" y="-191.18000000000018" as="targetPoint" />
          </mxGeometry>
        </mxCell>
        <mxCell id="jH4gpe4Tn965D2jjeDOP-32" value="&amp;lt;&amp;lt;extend&amp;gt;&amp;gt;" style="html=1;verticalAlign=bottom;labelBackgroundColor=none;endArrow=open;endFill=0;dashed=1;rounded=0;exitX=0.5;exitY=0;exitDx=0;exitDy=0;entryX=0.5;entryY=1;entryDx=0;entryDy=0;fontSize=14;" parent="jH4gpe4Tn965D2jjeDOP-1" source="jH4gpe4Tn965D2jjeDOP-16" target="jH4gpe4Tn965D2jjeDOP-14" edge="1">
          <mxGeometry width="160" relative="1" as="geometry">
            <mxPoint x="1793" y="-215" as="sourcePoint" />
            <mxPoint x="1662.9999999999877" y="-200" as="targetPoint" />
          </mxGeometry>
        </mxCell>
        <mxCell id="jH4gpe4Tn965D2jjeDOP-33" value="&lt;font style=&quot;font-size: 29px;&quot;&gt;&lt;b&gt;Интернет-магазин бренда «Накарабине»&lt;/b&gt;&lt;/font&gt;" style="text;html=1;strokeColor=none;fillColor=none;align=center;verticalAlign=middle;whiteSpace=wrap;rounded=0;fontSize=14;" parent="jH4gpe4Tn965D2jjeDOP-1" vertex="1">
          <mxGeometry x="1545.5" y="-1070" width="429" height="70" as="geometry" />
        </mxCell>
        <mxCell id="jH4gpe4Tn965D2jjeDOP-34" value="&amp;lt;&amp;lt;extend&amp;gt;&amp;gt;" style="html=1;verticalAlign=bottom;labelBackgroundColor=none;endArrow=open;endFill=0;dashed=1;rounded=0;exitX=0;exitY=0.5;exitDx=0;exitDy=0;entryX=1;entryY=0.5;entryDx=0;entryDy=0;fontSize=14;" parent="jH4gpe4Tn965D2jjeDOP-1" source="jH4gpe4Tn965D2jjeDOP-14" target="jH4gpe4Tn965D2jjeDOP-15" edge="1">
          <mxGeometry width="160" relative="1" as="geometry">
            <mxPoint x="1623.0000000000023" y="-375" as="sourcePoint" />
            <mxPoint x="1389.9999999999982" y="-375" as="targetPoint" />
          </mxGeometry>
        </mxCell>
        <mxCell id="jH4gpe4Tn965D2jjeDOP-35" value="Найти товар" style="ellipse;whiteSpace=wrap;html=1;fontSize=16;" parent="jH4gpe4Tn965D2jjeDOP-1" vertex="1">
          <mxGeometry x="1460" y="-640" width="170" height="90" as="geometry" />
        </mxCell>
        <mxCell id="jH4gpe4Tn965D2jjeDOP-36" value="&lt;font style=&quot;font-size: 16px;&quot;&gt;Неавторизованный &lt;br&gt;пользователь&lt;/font&gt;" style="shape=umlActor;verticalLabelPosition=bottom;verticalAlign=top;html=1;outlineConnect=0;" parent="jH4gpe4Tn965D2jjeDOP-1" vertex="1">
          <mxGeometry x="1020" y="-830" width="30" height="60" as="geometry" />
        </mxCell>
        <mxCell id="jH4gpe4Tn965D2jjeDOP-37" value="" style="rounded=0;whiteSpace=wrap;html=1;fontSize=14;" parent="jH4gpe4Tn965D2jjeDOP-1" vertex="1">
          <mxGeometry x="2500" y="-1110" width="3030" height="2320" as="geometry" />
        </mxCell>
        <mxCell id="jH4gpe4Tn965D2jjeDOP-38" value="&lt;font size=&quot;1&quot; style=&quot;&quot;&gt;&lt;b style=&quot;font-size: 30px;&quot;&gt;Варианты использования&lt;/b&gt;&lt;/font&gt;" style="text;html=1;strokeColor=none;fillColor=none;align=left;verticalAlign=middle;whiteSpace=wrap;rounded=0;" parent="jH4gpe4Tn965D2jjeDOP-1" vertex="1">
          <mxGeometry x="2620" y="-1050" width="410" height="30" as="geometry" />
        </mxCell>
        <mxCell id="jH4gpe4Tn965D2jjeDOP-39" value="" style="shape=table;html=1;whiteSpace=wrap;startSize=0;container=1;collapsible=0;childLayout=tableLayout;fontSize=29;columnLines=1;rowLines=1;strokeColor=#666666;swimlaneLine=1;swimlaneFillColor=none;fillColor=#f5f5f5;fontColor=#333333;strokeWidth=2;perimeterSpacing=0;labelBorderColor=default;shadow=1;rounded=0;" parent="jH4gpe4Tn965D2jjeDOP-1" vertex="1">
          <mxGeometry x="2610" y="-950" width="870" height="400" as="geometry" />
        </mxCell>
        <mxCell id="jH4gpe4Tn965D2jjeDOP-40" value="" style="shape=tableRow;horizontal=0;startSize=0;swimlaneHead=0;swimlaneBody=0;top=0;left=0;bottom=0;right=0;collapsible=0;dropTarget=0;fillColor=none;points=[[0,0.5],[1,0.5]];portConstraint=eastwest;fontSize=29;" parent="jH4gpe4Tn965D2jjeDOP-39" vertex="1">
          <mxGeometry width="870" height="40" as="geometry" />
        </mxCell>
        <mxCell id="jH4gpe4Tn965D2jjeDOP-41" value="&lt;font style=&quot;font-size: 18px;&quot;&gt;Уникальный код и название&lt;/font&gt;" style="shape=partialRectangle;html=1;whiteSpace=wrap;connectable=0;fillColor=#f5f5f5;top=0;left=0;bottom=1;right=1;overflow=hidden;fontSize=29;align=left;fontStyle=1;fontColor=#333333;strokeColor=#666666;labelBorderColor=none;strokeWidth=1;sketch=0;perimeterSpacing=1;verticalAlign=middle;" parent="jH4gpe4Tn965D2jjeDOP-40" vertex="1">
          <mxGeometry width="290" height="40" as="geometry">
            <mxRectangle width="290" height="40" as="alternateBounds" />
          </mxGeometry>
        </mxCell>
        <mxCell id="jH4gpe4Tn965D2jjeDOP-42" value="&lt;font style=&quot;font-size: 18px;&quot;&gt;ВИ-1: Посмотреть список всех товаров&lt;/font&gt;" style="shape=partialRectangle;html=1;whiteSpace=wrap;connectable=0;fillColor=#f5f5f5;top=0;left=0;bottom=1;right=0;overflow=hidden;fontSize=29;fontStyle=1;align=left;fontColor=#333333;strokeColor=#666666;strokeWidth=1;labelBorderColor=none;shadow=1;perimeterSpacing=1;verticalAlign=middle;" parent="jH4gpe4Tn965D2jjeDOP-40" vertex="1">
          <mxGeometry x="290" width="580" height="40" as="geometry">
            <mxRectangle width="580" height="40" as="alternateBounds" />
          </mxGeometry>
        </mxCell>
        <mxCell id="jH4gpe4Tn965D2jjeDOP-43" value="" style="shape=tableRow;horizontal=0;startSize=0;swimlaneHead=0;swimlaneBody=0;top=0;left=0;bottom=0;right=0;collapsible=0;dropTarget=0;fillColor=none;points=[[0,0.5],[1,0.5]];portConstraint=eastwest;fontSize=29;" parent="jH4gpe4Tn965D2jjeDOP-39" vertex="1">
          <mxGeometry y="40" width="870" height="40" as="geometry" />
        </mxCell>
        <mxCell id="jH4gpe4Tn965D2jjeDOP-44" value="&lt;font style=&quot;font-size: 16px;&quot;&gt;Контекст использования&lt;/font&gt;" style="shape=partialRectangle;html=1;whiteSpace=wrap;connectable=0;fillColor=#f5f5f5;top=0;left=0;bottom=1;right=1;overflow=hidden;fontSize=16;fontColor=#333333;strokeColor=#666666;perimeterSpacing=1;align=left;fontStyle=1;strokeWidth=1;verticalAlign=top;" parent="jH4gpe4Tn965D2jjeDOP-43" vertex="1">
          <mxGeometry width="290" height="40" as="geometry">
            <mxRectangle width="290" height="40" as="alternateBounds" />
          </mxGeometry>
        </mxCell>
        <mxCell id="jH4gpe4Tn965D2jjeDOP-45" value="Посмотреть доступные для заказа товары в веб-приложении" style="shape=partialRectangle;html=1;whiteSpace=wrap;connectable=0;top=0;left=0;bottom=1;right=0;overflow=hidden;fontSize=16;align=left;strokeWidth=1;strokeColor=#666666;verticalAlign=top;perimeterSpacing=1;" parent="jH4gpe4Tn965D2jjeDOP-43" vertex="1">
          <mxGeometry x="290" width="580" height="40" as="geometry">
            <mxRectangle width="580" height="40" as="alternateBounds" />
          </mxGeometry>
        </mxCell>
        <mxCell id="jH4gpe4Tn965D2jjeDOP-46" value="" style="shape=tableRow;horizontal=0;startSize=0;swimlaneHead=0;swimlaneBody=0;top=0;left=0;bottom=0;right=0;collapsible=0;dropTarget=0;fillColor=none;points=[[0,0.5],[1,0.5]];portConstraint=eastwest;fontSize=29;" parent="jH4gpe4Tn965D2jjeDOP-39" vertex="1">
          <mxGeometry y="80" width="870" height="40" as="geometry" />
        </mxCell>
        <mxCell id="jH4gpe4Tn965D2jjeDOP-47" value="&lt;font style=&quot;font-size: 16px;&quot;&gt;Область действия&lt;/font&gt;" style="shape=partialRectangle;html=1;whiteSpace=wrap;connectable=0;fillColor=#f5f5f5;top=0;left=0;bottom=1;right=1;overflow=hidden;fontSize=16;fontColor=#333333;strokeColor=#666666;align=left;fontStyle=1;strokeWidth=1;verticalAlign=top;perimeterSpacing=1;" parent="jH4gpe4Tn965D2jjeDOP-46" vertex="1">
          <mxGeometry width="290" height="40" as="geometry">
            <mxRectangle width="290" height="40" as="alternateBounds" />
          </mxGeometry>
        </mxCell>
        <mxCell id="jH4gpe4Tn965D2jjeDOP-48" value="Веб-приложение Накарабине" style="shape=partialRectangle;html=1;whiteSpace=wrap;connectable=0;top=0;left=0;bottom=1;right=0;overflow=hidden;fontSize=16;align=left;strokeWidth=1;verticalAlign=top;strokeColor=#666666;perimeterSpacing=1;" parent="jH4gpe4Tn965D2jjeDOP-46" vertex="1">
          <mxGeometry x="290" width="580" height="40" as="geometry">
            <mxRectangle width="580" height="40" as="alternateBounds" />
          </mxGeometry>
        </mxCell>
        <mxCell id="jH4gpe4Tn965D2jjeDOP-49" style="shape=tableRow;horizontal=0;startSize=0;swimlaneHead=0;swimlaneBody=0;top=0;left=0;bottom=0;right=0;collapsible=0;dropTarget=0;fillColor=none;points=[[0,0.5],[1,0.5]];portConstraint=eastwest;fontSize=29;" parent="jH4gpe4Tn965D2jjeDOP-39" vertex="1">
          <mxGeometry y="120" width="870" height="40" as="geometry" />
        </mxCell>
        <mxCell id="jH4gpe4Tn965D2jjeDOP-50" value="Основное действующее лицо" style="shape=partialRectangle;html=1;whiteSpace=wrap;connectable=0;fillColor=#f5f5f5;top=0;left=0;bottom=1;right=1;overflow=hidden;fontSize=16;fontColor=#333333;strokeColor=#666666;align=left;fontStyle=1;strokeWidth=1;verticalAlign=top;perimeterSpacing=1;" parent="jH4gpe4Tn965D2jjeDOP-49" vertex="1">
          <mxGeometry width="290" height="40" as="geometry">
            <mxRectangle width="290" height="40" as="alternateBounds" />
          </mxGeometry>
        </mxCell>
        <mxCell id="jH4gpe4Tn965D2jjeDOP-51" value="Пользователь" style="shape=partialRectangle;html=1;whiteSpace=wrap;connectable=0;top=0;left=0;bottom=1;right=0;overflow=hidden;fontSize=16;align=left;strokeWidth=1;verticalAlign=top;strokeColor=#666666;perimeterSpacing=1;" parent="jH4gpe4Tn965D2jjeDOP-49" vertex="1">
          <mxGeometry x="290" width="580" height="40" as="geometry">
            <mxRectangle width="580" height="40" as="alternateBounds" />
          </mxGeometry>
        </mxCell>
        <mxCell id="jH4gpe4Tn965D2jjeDOP-52" style="shape=tableRow;horizontal=0;startSize=0;swimlaneHead=0;swimlaneBody=0;top=0;left=0;bottom=0;right=0;collapsible=0;dropTarget=0;fillColor=none;points=[[0,0.5],[1,0.5]];portConstraint=eastwest;fontSize=29;" parent="jH4gpe4Tn965D2jjeDOP-39" vertex="1">
          <mxGeometry y="160" width="870" height="40" as="geometry" />
        </mxCell>
        <mxCell id="jH4gpe4Tn965D2jjeDOP-53" value="Предусловие" style="shape=partialRectangle;html=1;whiteSpace=wrap;connectable=0;fillColor=#f5f5f5;top=0;left=0;bottom=1;right=1;overflow=hidden;fontSize=16;fontColor=#333333;strokeColor=#666666;align=left;fontStyle=1;strokeWidth=1;verticalAlign=top;perimeterSpacing=1;" parent="jH4gpe4Tn965D2jjeDOP-52" vertex="1">
          <mxGeometry width="290" height="40" as="geometry">
            <mxRectangle width="290" height="40" as="alternateBounds" />
          </mxGeometry>
        </mxCell>
        <mxCell id="jH4gpe4Tn965D2jjeDOP-54" value="Пользователь вошел в веб-приложение Накарабине" style="shape=partialRectangle;html=1;whiteSpace=wrap;connectable=0;top=0;left=0;bottom=1;right=0;overflow=hidden;fontSize=16;align=left;strokeWidth=1;verticalAlign=top;perimeterSpacing=1;strokeColor=#666666;" parent="jH4gpe4Tn965D2jjeDOP-52" vertex="1">
          <mxGeometry x="290" width="580" height="40" as="geometry">
            <mxRectangle width="580" height="40" as="alternateBounds" />
          </mxGeometry>
        </mxCell>
        <mxCell id="jH4gpe4Tn965D2jjeDOP-55" style="shape=tableRow;horizontal=0;startSize=0;swimlaneHead=0;swimlaneBody=0;top=0;left=0;bottom=0;right=0;collapsible=0;dropTarget=0;fillColor=none;points=[[0,0.5],[1,0.5]];portConstraint=eastwest;fontSize=29;" parent="jH4gpe4Tn965D2jjeDOP-39" vertex="1">
          <mxGeometry y="200" width="870" height="40" as="geometry" />
        </mxCell>
        <mxCell id="jH4gpe4Tn965D2jjeDOP-56" value="Гарантии успеха" style="shape=partialRectangle;html=1;whiteSpace=wrap;connectable=0;fillColor=#f5f5f5;top=0;left=0;bottom=1;right=1;overflow=hidden;fontSize=16;fontColor=#333333;strokeColor=#666666;align=left;fontStyle=1;strokeWidth=1;verticalAlign=top;perimeterSpacing=1;" parent="jH4gpe4Tn965D2jjeDOP-55" vertex="1">
          <mxGeometry width="290" height="40" as="geometry">
            <mxRectangle width="290" height="40" as="alternateBounds" />
          </mxGeometry>
        </mxCell>
        <mxCell id="jH4gpe4Tn965D2jjeDOP-57" value="Информация о товарах Накарабине просмотрена" style="shape=partialRectangle;html=1;whiteSpace=wrap;connectable=0;top=0;left=0;bottom=1;right=0;overflow=hidden;fontSize=16;align=left;strokeWidth=1;verticalAlign=top;strokeColor=#666666;" parent="jH4gpe4Tn965D2jjeDOP-55" vertex="1">
          <mxGeometry x="290" width="580" height="40" as="geometry">
            <mxRectangle width="580" height="40" as="alternateBounds" />
          </mxGeometry>
        </mxCell>
        <mxCell id="jH4gpe4Tn965D2jjeDOP-58" style="shape=tableRow;horizontal=0;startSize=0;swimlaneHead=0;swimlaneBody=0;top=0;left=0;bottom=0;right=0;collapsible=0;dropTarget=0;fillColor=none;points=[[0,0.5],[1,0.5]];portConstraint=eastwest;fontSize=29;" parent="jH4gpe4Tn965D2jjeDOP-39" vertex="1">
          <mxGeometry y="240" width="870" height="50" as="geometry" />
        </mxCell>
        <mxCell id="jH4gpe4Tn965D2jjeDOP-59" value="Триггер" style="shape=partialRectangle;html=1;whiteSpace=wrap;connectable=0;fillColor=#f5f5f5;top=0;left=0;bottom=1;right=1;overflow=hidden;fontSize=16;fontColor=#333333;strokeColor=#666666;perimeterSpacing=1;align=left;fontStyle=1;strokeWidth=1;verticalAlign=top;" parent="jH4gpe4Tn965D2jjeDOP-58" vertex="1">
          <mxGeometry width="290" height="50" as="geometry">
            <mxRectangle width="290" height="50" as="alternateBounds" />
          </mxGeometry>
        </mxCell>
        <mxCell id="jH4gpe4Tn965D2jjeDOP-60" value="Пользователь хочет узнать о доступных для заказа товарах в веб-приложении" style="shape=partialRectangle;html=1;whiteSpace=wrap;connectable=0;top=0;left=0;bottom=1;right=0;overflow=hidden;fontSize=16;align=left;strokeWidth=1;verticalAlign=top;perimeterSpacing=1;" parent="jH4gpe4Tn965D2jjeDOP-58" vertex="1">
          <mxGeometry x="290" width="580" height="50" as="geometry">
            <mxRectangle width="580" height="50" as="alternateBounds" />
          </mxGeometry>
        </mxCell>
        <mxCell id="jH4gpe4Tn965D2jjeDOP-61" style="shape=tableRow;horizontal=0;startSize=0;swimlaneHead=0;swimlaneBody=0;top=0;left=0;bottom=0;right=0;collapsible=0;dropTarget=0;fillColor=none;points=[[0,0.5],[1,0.5]];portConstraint=eastwest;fontSize=29;" parent="jH4gpe4Tn965D2jjeDOP-39" vertex="1">
          <mxGeometry y="290" width="870" height="70" as="geometry" />
        </mxCell>
        <mxCell id="jH4gpe4Tn965D2jjeDOP-62" value="Базовый сценарий" style="shape=partialRectangle;html=1;whiteSpace=wrap;connectable=0;fillColor=#f5f5f5;top=0;left=0;bottom=1;right=1;overflow=hidden;fontSize=16;fontColor=#333333;strokeColor=#666666;perimeterSpacing=1;align=left;fontStyle=1;strokeWidth=1;verticalAlign=top;" parent="jH4gpe4Tn965D2jjeDOP-61" vertex="1">
          <mxGeometry width="290" height="70" as="geometry">
            <mxRectangle width="290" height="70" as="alternateBounds" />
          </mxGeometry>
        </mxCell>
        <mxCell id="jH4gpe4Tn965D2jjeDOP-63" value="Просмотр информации о всех товарах:&lt;br style=&quot;font-size: 16px;&quot;&gt;1. Пользователь просматривает список всех товаров в веб-приложении.&lt;br&gt;2. Система отображает информацию из Базового каталога товаров." style="shape=partialRectangle;html=1;whiteSpace=wrap;connectable=0;top=0;left=0;bottom=1;right=0;overflow=hidden;fontSize=16;align=left;strokeWidth=1;verticalAlign=top;perimeterSpacing=1;strokeColor=#666666;" parent="jH4gpe4Tn965D2jjeDOP-61" vertex="1">
          <mxGeometry x="290" width="580" height="70" as="geometry">
            <mxRectangle width="580" height="70" as="alternateBounds" />
          </mxGeometry>
        </mxCell>
        <mxCell id="jH4gpe4Tn965D2jjeDOP-64" style="shape=tableRow;horizontal=0;startSize=0;swimlaneHead=0;swimlaneBody=0;top=0;left=0;bottom=0;right=0;collapsible=0;dropTarget=0;fillColor=none;points=[[0,0.5],[1,0.5]];portConstraint=eastwest;fontSize=29;" parent="jH4gpe4Tn965D2jjeDOP-39" vertex="1">
          <mxGeometry y="360" width="870" height="40" as="geometry" />
        </mxCell>
        <mxCell id="jH4gpe4Tn965D2jjeDOP-65" value="Изменения в технологии и данных" style="shape=partialRectangle;html=1;whiteSpace=wrap;connectable=0;fillColor=#f5f5f5;top=0;left=0;bottom=0;right=1;overflow=hidden;fontSize=16;fontColor=#333333;strokeColor=#666666;strokeWidth=1;perimeterSpacing=1;align=left;fontStyle=1;verticalAlign=top;" parent="jH4gpe4Tn965D2jjeDOP-64" vertex="1">
          <mxGeometry width="290" height="40" as="geometry">
            <mxRectangle width="290" height="40" as="alternateBounds" />
          </mxGeometry>
        </mxCell>
        <mxCell id="jH4gpe4Tn965D2jjeDOP-66" value="Использовать каталог товаров" style="shape=partialRectangle;html=1;whiteSpace=wrap;connectable=0;top=0;left=0;bottom=0;right=0;overflow=hidden;fontSize=16;align=left;strokeWidth=1;verticalAlign=top;strokeColor=#666666;perimeterSpacing=1;" parent="jH4gpe4Tn965D2jjeDOP-64" vertex="1">
          <mxGeometry x="290" width="580" height="40" as="geometry">
            <mxRectangle width="580" height="40" as="alternateBounds" />
          </mxGeometry>
        </mxCell>
        <mxCell id="jH4gpe4Tn965D2jjeDOP-67" value="" style="shape=table;html=1;whiteSpace=wrap;startSize=0;container=1;collapsible=0;childLayout=tableLayout;fontSize=29;columnLines=1;rowLines=1;strokeColor=#666666;swimlaneLine=1;swimlaneFillColor=none;fillColor=#f5f5f5;fontColor=#333333;labelBorderColor=default;strokeWidth=2;shadow=1;verticalAlign=top;" parent="jH4gpe4Tn965D2jjeDOP-1" vertex="1">
          <mxGeometry x="2610" y="-530" width="870" height="450.0000000000007" as="geometry" />
        </mxCell>
        <mxCell id="jH4gpe4Tn965D2jjeDOP-68" value="" style="shape=tableRow;horizontal=0;startSize=0;swimlaneHead=0;swimlaneBody=0;top=0;left=0;bottom=0;right=0;collapsible=0;dropTarget=0;fillColor=none;points=[[0,0.5],[1,0.5]];portConstraint=eastwest;fontSize=29;" parent="jH4gpe4Tn965D2jjeDOP-67" vertex="1">
          <mxGeometry width="870" height="40" as="geometry" />
        </mxCell>
        <mxCell id="jH4gpe4Tn965D2jjeDOP-69" value="&lt;font style=&quot;font-size: 18px;&quot;&gt;Уникальный код и название&lt;/font&gt;" style="shape=partialRectangle;html=1;whiteSpace=wrap;connectable=0;fillColor=#f5f5f5;top=0;left=0;bottom=1;right=1;overflow=hidden;fontSize=29;align=left;fontStyle=1;fontColor=#333333;strokeColor=default;labelBorderColor=none;" parent="jH4gpe4Tn965D2jjeDOP-68" vertex="1">
          <mxGeometry width="290" height="40" as="geometry">
            <mxRectangle width="290" height="40" as="alternateBounds" />
          </mxGeometry>
        </mxCell>
        <mxCell id="jH4gpe4Tn965D2jjeDOP-70" value="&lt;font style=&quot;font-size: 18px;&quot;&gt;ВИ-2: Посмотреть информацию о товаре&lt;/font&gt;" style="shape=partialRectangle;html=1;whiteSpace=wrap;connectable=0;fillColor=#f5f5f5;top=0;left=0;bottom=1;right=0;overflow=hidden;fontSize=29;fontStyle=1;align=left;fontColor=#333333;strokeColor=#000000;" parent="jH4gpe4Tn965D2jjeDOP-68" vertex="1">
          <mxGeometry x="290" width="580" height="40" as="geometry">
            <mxRectangle width="580" height="40" as="alternateBounds" />
          </mxGeometry>
        </mxCell>
        <mxCell id="jH4gpe4Tn965D2jjeDOP-71" value="" style="shape=tableRow;horizontal=0;startSize=0;swimlaneHead=0;swimlaneBody=0;top=0;left=0;bottom=0;right=0;collapsible=0;dropTarget=0;fillColor=none;points=[[0,0.5],[1,0.5]];portConstraint=eastwest;fontSize=29;" parent="jH4gpe4Tn965D2jjeDOP-67" vertex="1">
          <mxGeometry y="40" width="870" height="40" as="geometry" />
        </mxCell>
        <mxCell id="jH4gpe4Tn965D2jjeDOP-72" value="&lt;font style=&quot;font-size: 16px;&quot;&gt;Контекст использования&lt;/font&gt;" style="shape=partialRectangle;html=1;whiteSpace=wrap;connectable=0;fillColor=#f5f5f5;top=0;left=0;bottom=1;right=1;overflow=hidden;fontSize=16;fontColor=#333333;strokeColor=#000000;perimeterSpacing=1;align=left;verticalAlign=top;fontStyle=1" parent="jH4gpe4Tn965D2jjeDOP-71" vertex="1">
          <mxGeometry width="290" height="40" as="geometry">
            <mxRectangle width="290" height="40" as="alternateBounds" />
          </mxGeometry>
        </mxCell>
        <mxCell id="jH4gpe4Tn965D2jjeDOP-73" value="Посмотреть информацию о товаре в веб-приложении" style="shape=partialRectangle;html=1;whiteSpace=wrap;connectable=0;top=0;left=0;bottom=1;right=0;overflow=hidden;fontSize=16;align=left;verticalAlign=top;" parent="jH4gpe4Tn965D2jjeDOP-71" vertex="1">
          <mxGeometry x="290" width="580" height="40" as="geometry">
            <mxRectangle width="580" height="40" as="alternateBounds" />
          </mxGeometry>
        </mxCell>
        <mxCell id="jH4gpe4Tn965D2jjeDOP-74" value="" style="shape=tableRow;horizontal=0;startSize=0;swimlaneHead=0;swimlaneBody=0;top=0;left=0;bottom=0;right=0;collapsible=0;dropTarget=0;fillColor=none;points=[[0,0.5],[1,0.5]];portConstraint=eastwest;fontSize=29;" parent="jH4gpe4Tn965D2jjeDOP-67" vertex="1">
          <mxGeometry y="80" width="870" height="40" as="geometry" />
        </mxCell>
        <mxCell id="jH4gpe4Tn965D2jjeDOP-75" value="&lt;font style=&quot;font-size: 16px;&quot;&gt;Область действия&lt;/font&gt;" style="shape=partialRectangle;html=1;whiteSpace=wrap;connectable=0;fillColor=#f5f5f5;top=0;left=0;bottom=1;right=1;overflow=hidden;fontSize=16;fontColor=#333333;strokeColor=#666666;align=left;fontStyle=1;verticalAlign=top;" parent="jH4gpe4Tn965D2jjeDOP-74" vertex="1">
          <mxGeometry width="290" height="40" as="geometry">
            <mxRectangle width="290" height="40" as="alternateBounds" />
          </mxGeometry>
        </mxCell>
        <mxCell id="jH4gpe4Tn965D2jjeDOP-76" value="Веб-приложение Накарабине" style="shape=partialRectangle;html=1;whiteSpace=wrap;connectable=0;top=0;left=0;bottom=1;right=0;overflow=hidden;fontSize=16;align=left;verticalAlign=top;" parent="jH4gpe4Tn965D2jjeDOP-74" vertex="1">
          <mxGeometry x="290" width="580" height="40" as="geometry">
            <mxRectangle width="580" height="40" as="alternateBounds" />
          </mxGeometry>
        </mxCell>
        <mxCell id="jH4gpe4Tn965D2jjeDOP-77" style="shape=tableRow;horizontal=0;startSize=0;swimlaneHead=0;swimlaneBody=0;top=0;left=0;bottom=0;right=0;collapsible=0;dropTarget=0;fillColor=none;points=[[0,0.5],[1,0.5]];portConstraint=eastwest;fontSize=29;" parent="jH4gpe4Tn965D2jjeDOP-67" vertex="1">
          <mxGeometry y="120" width="870" height="40" as="geometry" />
        </mxCell>
        <mxCell id="jH4gpe4Tn965D2jjeDOP-78" value="Основное действующее лицо" style="shape=partialRectangle;html=1;whiteSpace=wrap;connectable=0;fillColor=#f5f5f5;top=0;left=0;bottom=1;right=1;overflow=hidden;fontSize=16;fontColor=#333333;strokeColor=#666666;align=left;fontStyle=1;verticalAlign=top;" parent="jH4gpe4Tn965D2jjeDOP-77" vertex="1">
          <mxGeometry width="290" height="40" as="geometry">
            <mxRectangle width="290" height="40" as="alternateBounds" />
          </mxGeometry>
        </mxCell>
        <mxCell id="jH4gpe4Tn965D2jjeDOP-79" value="Пользователь" style="shape=partialRectangle;html=1;whiteSpace=wrap;connectable=0;top=0;left=0;bottom=1;right=0;overflow=hidden;fontSize=16;align=left;verticalAlign=top;" parent="jH4gpe4Tn965D2jjeDOP-77" vertex="1">
          <mxGeometry x="290" width="580" height="40" as="geometry">
            <mxRectangle width="580" height="40" as="alternateBounds" />
          </mxGeometry>
        </mxCell>
        <mxCell id="jH4gpe4Tn965D2jjeDOP-80" style="shape=tableRow;horizontal=0;startSize=0;swimlaneHead=0;swimlaneBody=0;top=0;left=0;bottom=0;right=0;collapsible=0;dropTarget=0;fillColor=none;points=[[0,0.5],[1,0.5]];portConstraint=eastwest;fontSize=29;" parent="jH4gpe4Tn965D2jjeDOP-67" vertex="1">
          <mxGeometry y="160" width="870" height="40" as="geometry" />
        </mxCell>
        <mxCell id="jH4gpe4Tn965D2jjeDOP-81" value="Предусловие" style="shape=partialRectangle;html=1;whiteSpace=wrap;connectable=0;fillColor=#f5f5f5;top=0;left=0;bottom=1;right=1;overflow=hidden;fontSize=16;fontColor=#333333;strokeColor=#666666;align=left;fontStyle=1;verticalAlign=top;" parent="jH4gpe4Tn965D2jjeDOP-80" vertex="1">
          <mxGeometry width="290" height="40" as="geometry">
            <mxRectangle width="290" height="40" as="alternateBounds" />
          </mxGeometry>
        </mxCell>
        <mxCell id="jH4gpe4Tn965D2jjeDOP-82" value="Пользователь вошел в веб-приложение Накарабине" style="shape=partialRectangle;html=1;whiteSpace=wrap;connectable=0;top=0;left=0;bottom=1;right=0;overflow=hidden;fontSize=16;align=left;verticalAlign=top;" parent="jH4gpe4Tn965D2jjeDOP-80" vertex="1">
          <mxGeometry x="290" width="580" height="40" as="geometry">
            <mxRectangle width="580" height="40" as="alternateBounds" />
          </mxGeometry>
        </mxCell>
        <mxCell id="jH4gpe4Tn965D2jjeDOP-83" style="shape=tableRow;horizontal=0;startSize=0;swimlaneHead=0;swimlaneBody=0;top=0;left=0;bottom=0;right=0;collapsible=0;dropTarget=0;fillColor=none;points=[[0,0.5],[1,0.5]];portConstraint=eastwest;fontSize=29;" parent="jH4gpe4Tn965D2jjeDOP-67" vertex="1">
          <mxGeometry y="200" width="870" height="40" as="geometry" />
        </mxCell>
        <mxCell id="jH4gpe4Tn965D2jjeDOP-84" value="Гарантии успеха" style="shape=partialRectangle;html=1;whiteSpace=wrap;connectable=0;fillColor=#f5f5f5;top=0;left=0;bottom=1;right=1;overflow=hidden;fontSize=16;fontColor=#333333;strokeColor=#666666;align=left;fontStyle=1;verticalAlign=top;" parent="jH4gpe4Tn965D2jjeDOP-83" vertex="1">
          <mxGeometry width="290" height="40" as="geometry">
            <mxRectangle width="290" height="40" as="alternateBounds" />
          </mxGeometry>
        </mxCell>
        <mxCell id="jH4gpe4Tn965D2jjeDOP-85" value="Информация о товарах Накарабине просмотрена" style="shape=partialRectangle;html=1;whiteSpace=wrap;connectable=0;top=0;left=0;bottom=1;right=0;overflow=hidden;fontSize=16;align=left;verticalAlign=top;" parent="jH4gpe4Tn965D2jjeDOP-83" vertex="1">
          <mxGeometry x="290" width="580" height="40" as="geometry">
            <mxRectangle width="580" height="40" as="alternateBounds" />
          </mxGeometry>
        </mxCell>
        <mxCell id="jH4gpe4Tn965D2jjeDOP-86" style="shape=tableRow;horizontal=0;startSize=0;swimlaneHead=0;swimlaneBody=0;top=0;left=0;bottom=0;right=0;collapsible=0;dropTarget=0;fillColor=none;points=[[0,0.5],[1,0.5]];portConstraint=eastwest;fontSize=29;" parent="jH4gpe4Tn965D2jjeDOP-67" vertex="1">
          <mxGeometry y="240" width="870" height="40" as="geometry" />
        </mxCell>
        <mxCell id="jH4gpe4Tn965D2jjeDOP-87" value="Триггер" style="shape=partialRectangle;html=1;whiteSpace=wrap;connectable=0;fillColor=#f5f5f5;top=0;left=0;bottom=1;right=1;overflow=hidden;fontSize=16;fontColor=#333333;strokeColor=#666666;perimeterSpacing=1;align=left;fontStyle=1;verticalAlign=top;" parent="jH4gpe4Tn965D2jjeDOP-86" vertex="1">
          <mxGeometry width="290" height="40" as="geometry">
            <mxRectangle width="290" height="40" as="alternateBounds" />
          </mxGeometry>
        </mxCell>
        <mxCell id="jH4gpe4Tn965D2jjeDOP-88" value="Пользователь хочет узнать информацию о товаре в веб-приложении" style="shape=partialRectangle;html=1;whiteSpace=wrap;connectable=0;top=0;left=0;bottom=1;right=0;overflow=hidden;fontSize=16;align=left;verticalAlign=top;" parent="jH4gpe4Tn965D2jjeDOP-86" vertex="1">
          <mxGeometry x="290" width="580" height="40" as="geometry">
            <mxRectangle width="580" height="40" as="alternateBounds" />
          </mxGeometry>
        </mxCell>
        <mxCell id="jH4gpe4Tn965D2jjeDOP-89" style="shape=tableRow;horizontal=0;startSize=0;swimlaneHead=0;swimlaneBody=0;top=0;left=0;bottom=0;right=0;collapsible=0;dropTarget=0;fillColor=none;points=[[0,0.5],[1,0.5]];portConstraint=eastwest;fontSize=29;" parent="jH4gpe4Tn965D2jjeDOP-67" vertex="1">
          <mxGeometry y="280" width="870" height="130" as="geometry" />
        </mxCell>
        <mxCell id="jH4gpe4Tn965D2jjeDOP-90" value="Базовый сценарий" style="shape=partialRectangle;html=1;whiteSpace=wrap;connectable=0;fillColor=#f5f5f5;top=0;left=0;bottom=1;right=1;overflow=hidden;fontSize=16;fontColor=#333333;strokeColor=#666666;perimeterSpacing=1;align=left;fontStyle=1;verticalAlign=top;" parent="jH4gpe4Tn965D2jjeDOP-89" vertex="1">
          <mxGeometry width="290" height="130" as="geometry">
            <mxRectangle width="290" height="130" as="alternateBounds" />
          </mxGeometry>
        </mxCell>
        <mxCell id="jH4gpe4Tn965D2jjeDOP-91" value="Просмотр информации товаре:&lt;br&gt;1. Пользователь выбирает нужный товар в каталоге.&lt;br&gt;2. Пользователь переходит на страницу нужного товара.&lt;br&gt;3. Система отображает информацию о выбранном товаре.&lt;br&gt;4. Пользователь просматривает название, описание, артикул, цену, размер скидки, название акции." style="shape=partialRectangle;html=1;whiteSpace=wrap;connectable=0;top=0;left=0;bottom=1;right=0;overflow=hidden;fontSize=16;align=left;verticalAlign=top;" parent="jH4gpe4Tn965D2jjeDOP-89" vertex="1">
          <mxGeometry x="290" width="580" height="130" as="geometry">
            <mxRectangle width="580" height="130" as="alternateBounds" />
          </mxGeometry>
        </mxCell>
        <mxCell id="jH4gpe4Tn965D2jjeDOP-92" style="shape=tableRow;horizontal=0;startSize=0;swimlaneHead=0;swimlaneBody=0;top=0;left=0;bottom=0;right=0;collapsible=0;dropTarget=0;fillColor=none;points=[[0,0.5],[1,0.5]];portConstraint=eastwest;fontSize=29;" parent="jH4gpe4Tn965D2jjeDOP-67" vertex="1">
          <mxGeometry y="410" width="870" height="40" as="geometry" />
        </mxCell>
        <mxCell id="jH4gpe4Tn965D2jjeDOP-93" value="Изменения в технологии и данных" style="shape=partialRectangle;html=1;whiteSpace=wrap;connectable=0;fillColor=#f5f5f5;top=0;left=0;bottom=0;right=1;overflow=hidden;fontSize=16;fontColor=#333333;strokeColor=#000000;strokeWidth=1;perimeterSpacing=1;align=left;fontStyle=1;verticalAlign=top;" parent="jH4gpe4Tn965D2jjeDOP-92" vertex="1">
          <mxGeometry width="290" height="40" as="geometry">
            <mxRectangle width="290" height="40" as="alternateBounds" />
          </mxGeometry>
        </mxCell>
        <mxCell id="jH4gpe4Tn965D2jjeDOP-94" value="Использовать каталог товаров" style="shape=partialRectangle;html=1;whiteSpace=wrap;connectable=0;top=0;left=0;bottom=0;right=0;overflow=hidden;fontSize=16;align=left;verticalAlign=top;" parent="jH4gpe4Tn965D2jjeDOP-92" vertex="1">
          <mxGeometry x="290" width="580" height="40" as="geometry">
            <mxRectangle width="580" height="40" as="alternateBounds" />
          </mxGeometry>
        </mxCell>
        <mxCell id="jH4gpe4Tn965D2jjeDOP-95" value="" style="shape=table;html=1;whiteSpace=wrap;startSize=0;container=1;collapsible=0;childLayout=tableLayout;fontSize=29;columnLines=1;rowLines=1;strokeColor=#666666;swimlaneLine=1;swimlaneFillColor=none;fillColor=#f5f5f5;fontColor=#333333;strokeWidth=2;shadow=1;" parent="jH4gpe4Tn965D2jjeDOP-1" vertex="1">
          <mxGeometry x="2610" y="-60" width="870" height="520.0000000000009" as="geometry" />
        </mxCell>
        <mxCell id="jH4gpe4Tn965D2jjeDOP-96" value="" style="shape=tableRow;horizontal=0;startSize=0;swimlaneHead=0;swimlaneBody=0;top=0;left=0;bottom=0;right=0;collapsible=0;dropTarget=0;fillColor=none;points=[[0,0.5],[1,0.5]];portConstraint=eastwest;fontSize=29;" parent="jH4gpe4Tn965D2jjeDOP-95" vertex="1">
          <mxGeometry width="870" height="40" as="geometry" />
        </mxCell>
        <mxCell id="jH4gpe4Tn965D2jjeDOP-97" value="&lt;font style=&quot;font-size: 18px;&quot;&gt;Уникальный код и название&lt;/font&gt;" style="shape=partialRectangle;html=1;whiteSpace=wrap;connectable=0;fillColor=#f5f5f5;top=0;left=0;bottom=1;right=1;overflow=hidden;fontSize=29;align=left;fontStyle=1;fontColor=#333333;strokeColor=#666666;labelBorderColor=none;verticalAlign=middle;strokeWidth=1;" parent="jH4gpe4Tn965D2jjeDOP-96" vertex="1">
          <mxGeometry width="290" height="40" as="geometry">
            <mxRectangle width="290" height="40" as="alternateBounds" />
          </mxGeometry>
        </mxCell>
        <mxCell id="jH4gpe4Tn965D2jjeDOP-98" value="&lt;font style=&quot;font-size: 18px;&quot;&gt;ВИ-3: Найти товар&lt;/font&gt;" style="shape=partialRectangle;html=1;whiteSpace=wrap;connectable=0;fillColor=#f5f5f5;top=0;left=0;bottom=1;right=0;overflow=hidden;fontSize=29;fontStyle=1;align=left;fontColor=#333333;strokeColor=#666666;strokeWidth=1;" parent="jH4gpe4Tn965D2jjeDOP-96" vertex="1">
          <mxGeometry x="290" width="580" height="40" as="geometry">
            <mxRectangle width="580" height="40" as="alternateBounds" />
          </mxGeometry>
        </mxCell>
        <mxCell id="jH4gpe4Tn965D2jjeDOP-99" value="" style="shape=tableRow;horizontal=0;startSize=0;swimlaneHead=0;swimlaneBody=0;top=0;left=0;bottom=0;right=0;collapsible=0;dropTarget=0;fillColor=none;points=[[0,0.5],[1,0.5]];portConstraint=eastwest;fontSize=29;" parent="jH4gpe4Tn965D2jjeDOP-95" vertex="1">
          <mxGeometry y="40" width="870" height="40" as="geometry" />
        </mxCell>
        <mxCell id="jH4gpe4Tn965D2jjeDOP-100" value="&lt;font style=&quot;font-size: 16px;&quot;&gt;Контекст использования&lt;/font&gt;" style="shape=partialRectangle;html=1;whiteSpace=wrap;connectable=0;fillColor=#f5f5f5;top=0;left=0;bottom=1;right=1;overflow=hidden;fontSize=16;fontColor=#333333;strokeColor=#666666;perimeterSpacing=4;align=left;fontStyle=1;strokeWidth=1;" parent="jH4gpe4Tn965D2jjeDOP-99" vertex="1">
          <mxGeometry width="290" height="40" as="geometry">
            <mxRectangle width="290" height="40" as="alternateBounds" />
          </mxGeometry>
        </mxCell>
        <mxCell id="jH4gpe4Tn965D2jjeDOP-101" value="Поиск доступных для заказа товаров в веб-приложении" style="shape=partialRectangle;html=1;whiteSpace=wrap;connectable=0;top=0;left=0;bottom=1;right=0;overflow=hidden;fontSize=16;align=left;verticalAlign=top;strokeWidth=1;strokeColor=#666666;" parent="jH4gpe4Tn965D2jjeDOP-99" vertex="1">
          <mxGeometry x="290" width="580" height="40" as="geometry">
            <mxRectangle width="580" height="40" as="alternateBounds" />
          </mxGeometry>
        </mxCell>
        <mxCell id="jH4gpe4Tn965D2jjeDOP-102" value="" style="shape=tableRow;horizontal=0;startSize=0;swimlaneHead=0;swimlaneBody=0;top=0;left=0;bottom=0;right=0;collapsible=0;dropTarget=0;fillColor=none;points=[[0,0.5],[1,0.5]];portConstraint=eastwest;fontSize=29;" parent="jH4gpe4Tn965D2jjeDOP-95" vertex="1">
          <mxGeometry y="80" width="870" height="40" as="geometry" />
        </mxCell>
        <mxCell id="jH4gpe4Tn965D2jjeDOP-103" value="&lt;font style=&quot;font-size: 16px;&quot;&gt;Область действия&lt;/font&gt;" style="shape=partialRectangle;html=1;whiteSpace=wrap;connectable=0;fillColor=#f5f5f5;top=0;left=0;bottom=1;right=1;overflow=hidden;fontSize=16;fontColor=#333333;strokeColor=#666666;align=left;fontStyle=1;strokeWidth=1;" parent="jH4gpe4Tn965D2jjeDOP-102" vertex="1">
          <mxGeometry width="290" height="40" as="geometry">
            <mxRectangle width="290" height="40" as="alternateBounds" />
          </mxGeometry>
        </mxCell>
        <mxCell id="jH4gpe4Tn965D2jjeDOP-104" value="Веб-приложение Накарабине" style="shape=partialRectangle;html=1;whiteSpace=wrap;connectable=0;top=0;left=0;bottom=1;right=0;overflow=hidden;fontSize=16;align=left;verticalAlign=top;strokeWidth=1;strokeColor=#666666;" parent="jH4gpe4Tn965D2jjeDOP-102" vertex="1">
          <mxGeometry x="290" width="580" height="40" as="geometry">
            <mxRectangle width="580" height="40" as="alternateBounds" />
          </mxGeometry>
        </mxCell>
        <mxCell id="jH4gpe4Tn965D2jjeDOP-105" style="shape=tableRow;horizontal=0;startSize=0;swimlaneHead=0;swimlaneBody=0;top=0;left=0;bottom=0;right=0;collapsible=0;dropTarget=0;fillColor=none;points=[[0,0.5],[1,0.5]];portConstraint=eastwest;fontSize=29;" parent="jH4gpe4Tn965D2jjeDOP-95" vertex="1">
          <mxGeometry y="120" width="870" height="40" as="geometry" />
        </mxCell>
        <mxCell id="jH4gpe4Tn965D2jjeDOP-106" value="Основное действующее лицо" style="shape=partialRectangle;html=1;whiteSpace=wrap;connectable=0;fillColor=#f5f5f5;top=0;left=0;bottom=1;right=1;overflow=hidden;fontSize=16;fontColor=#333333;strokeColor=#666666;align=left;fontStyle=1;strokeWidth=1;" parent="jH4gpe4Tn965D2jjeDOP-105" vertex="1">
          <mxGeometry width="290" height="40" as="geometry">
            <mxRectangle width="290" height="40" as="alternateBounds" />
          </mxGeometry>
        </mxCell>
        <mxCell id="jH4gpe4Tn965D2jjeDOP-107" value="Пользователь" style="shape=partialRectangle;html=1;whiteSpace=wrap;connectable=0;top=0;left=0;bottom=1;right=0;overflow=hidden;fontSize=16;align=left;verticalAlign=top;strokeWidth=1;strokeColor=#666666;" parent="jH4gpe4Tn965D2jjeDOP-105" vertex="1">
          <mxGeometry x="290" width="580" height="40" as="geometry">
            <mxRectangle width="580" height="40" as="alternateBounds" />
          </mxGeometry>
        </mxCell>
        <mxCell id="jH4gpe4Tn965D2jjeDOP-108" style="shape=tableRow;horizontal=0;startSize=0;swimlaneHead=0;swimlaneBody=0;top=0;left=0;bottom=0;right=0;collapsible=0;dropTarget=0;fillColor=none;points=[[0,0.5],[1,0.5]];portConstraint=eastwest;fontSize=29;" parent="jH4gpe4Tn965D2jjeDOP-95" vertex="1">
          <mxGeometry y="160" width="870" height="40" as="geometry" />
        </mxCell>
        <mxCell id="jH4gpe4Tn965D2jjeDOP-109" value="Предусловие" style="shape=partialRectangle;html=1;whiteSpace=wrap;connectable=0;fillColor=#f5f5f5;top=0;left=0;bottom=1;right=1;overflow=hidden;fontSize=16;fontColor=#333333;strokeColor=#666666;align=left;fontStyle=1;strokeWidth=1;" parent="jH4gpe4Tn965D2jjeDOP-108" vertex="1">
          <mxGeometry width="290" height="40" as="geometry">
            <mxRectangle width="290" height="40" as="alternateBounds" />
          </mxGeometry>
        </mxCell>
        <mxCell id="jH4gpe4Tn965D2jjeDOP-110" value="Пользователь вошел в веб-приложение Накарабине" style="shape=partialRectangle;html=1;whiteSpace=wrap;connectable=0;top=0;left=0;bottom=1;right=0;overflow=hidden;fontSize=16;align=left;verticalAlign=top;strokeWidth=1;strokeColor=#666666;" parent="jH4gpe4Tn965D2jjeDOP-108" vertex="1">
          <mxGeometry x="290" width="580" height="40" as="geometry">
            <mxRectangle width="580" height="40" as="alternateBounds" />
          </mxGeometry>
        </mxCell>
        <mxCell id="jH4gpe4Tn965D2jjeDOP-111" style="shape=tableRow;horizontal=0;startSize=0;swimlaneHead=0;swimlaneBody=0;top=0;left=0;bottom=0;right=0;collapsible=0;dropTarget=0;fillColor=none;points=[[0,0.5],[1,0.5]];portConstraint=eastwest;fontSize=29;" parent="jH4gpe4Tn965D2jjeDOP-95" vertex="1">
          <mxGeometry y="200" width="870" height="50" as="geometry" />
        </mxCell>
        <mxCell id="jH4gpe4Tn965D2jjeDOP-112" value="Гарантии успеха" style="shape=partialRectangle;html=1;whiteSpace=wrap;connectable=0;fillColor=#f5f5f5;top=0;left=0;bottom=1;right=1;overflow=hidden;fontSize=16;fontColor=#333333;strokeColor=#666666;align=left;fontStyle=1;strokeWidth=1;" parent="jH4gpe4Tn965D2jjeDOP-111" vertex="1">
          <mxGeometry width="290" height="50" as="geometry">
            <mxRectangle width="290" height="50" as="alternateBounds" />
          </mxGeometry>
        </mxCell>
        <mxCell id="jH4gpe4Tn965D2jjeDOP-113" value="— Товар найден&lt;br&gt;— Товар не найден" style="shape=partialRectangle;html=1;whiteSpace=wrap;connectable=0;top=0;left=0;bottom=1;right=0;overflow=hidden;fontSize=16;align=left;verticalAlign=top;strokeWidth=1;strokeColor=#666666;" parent="jH4gpe4Tn965D2jjeDOP-111" vertex="1">
          <mxGeometry x="290" width="580" height="50" as="geometry">
            <mxRectangle width="580" height="50" as="alternateBounds" />
          </mxGeometry>
        </mxCell>
        <mxCell id="jH4gpe4Tn965D2jjeDOP-114" style="shape=tableRow;horizontal=0;startSize=0;swimlaneHead=0;swimlaneBody=0;top=0;left=0;bottom=0;right=0;collapsible=0;dropTarget=0;fillColor=none;points=[[0,0.5],[1,0.5]];portConstraint=eastwest;fontSize=29;" parent="jH4gpe4Tn965D2jjeDOP-95" vertex="1">
          <mxGeometry y="250" width="870" height="50" as="geometry" />
        </mxCell>
        <mxCell id="jH4gpe4Tn965D2jjeDOP-115" value="Триггер" style="shape=partialRectangle;html=1;whiteSpace=wrap;connectable=0;fillColor=#f5f5f5;top=0;left=0;bottom=1;right=1;overflow=hidden;fontSize=16;fontColor=#333333;strokeColor=#666666;perimeterSpacing=1;align=left;fontStyle=1;strokeWidth=1;" parent="jH4gpe4Tn965D2jjeDOP-114" vertex="1">
          <mxGeometry width="290" height="50" as="geometry">
            <mxRectangle width="290" height="50" as="alternateBounds" />
          </mxGeometry>
        </mxCell>
        <mxCell id="jH4gpe4Tn965D2jjeDOP-116" value="Любой момент при использовании веб-приложения, когда пользователь хочет найти необходимый ему товар" style="shape=partialRectangle;html=1;whiteSpace=wrap;connectable=0;top=0;left=0;bottom=1;right=0;overflow=hidden;fontSize=16;align=left;verticalAlign=top;strokeWidth=1;strokeColor=#666666;" parent="jH4gpe4Tn965D2jjeDOP-114" vertex="1">
          <mxGeometry x="290" width="580" height="50" as="geometry">
            <mxRectangle width="580" height="50" as="alternateBounds" />
          </mxGeometry>
        </mxCell>
        <mxCell id="jH4gpe4Tn965D2jjeDOP-117" style="shape=tableRow;horizontal=0;startSize=0;swimlaneHead=0;swimlaneBody=0;top=0;left=0;bottom=0;right=0;collapsible=0;dropTarget=0;fillColor=none;points=[[0,0.5],[1,0.5]];portConstraint=eastwest;fontSize=29;" parent="jH4gpe4Tn965D2jjeDOP-95" vertex="1">
          <mxGeometry y="300" width="870" height="90" as="geometry" />
        </mxCell>
        <mxCell id="jH4gpe4Tn965D2jjeDOP-118" value="Базовый сценарий" style="shape=partialRectangle;html=1;whiteSpace=wrap;connectable=0;fillColor=#f5f5f5;top=0;left=0;bottom=1;right=1;overflow=hidden;fontSize=16;fontColor=#333333;strokeColor=#666666;perimeterSpacing=1;align=left;fontStyle=1;strokeWidth=1;" parent="jH4gpe4Tn965D2jjeDOP-117" vertex="1">
          <mxGeometry width="290" height="90" as="geometry">
            <mxRectangle width="290" height="90" as="alternateBounds" />
          </mxGeometry>
        </mxCell>
        <mxCell id="jH4gpe4Tn965D2jjeDOP-119" value="Поиск товара:&lt;br&gt;1. Пользователь вводит текст в строку поиска.&lt;br&gt;2. Система отображает пользователю найденные товары.&lt;br&gt;3. Пользователь просматривает товары." style="shape=partialRectangle;html=1;whiteSpace=wrap;connectable=0;top=0;left=0;bottom=1;right=0;overflow=hidden;fontSize=16;align=left;verticalAlign=top;strokeWidth=1;strokeColor=#666666;" parent="jH4gpe4Tn965D2jjeDOP-117" vertex="1">
          <mxGeometry x="290" width="580" height="90" as="geometry">
            <mxRectangle width="580" height="90" as="alternateBounds" />
          </mxGeometry>
        </mxCell>
        <mxCell id="jH4gpe4Tn965D2jjeDOP-120" style="shape=tableRow;horizontal=0;startSize=0;swimlaneHead=0;swimlaneBody=0;top=0;left=0;bottom=0;right=0;collapsible=0;dropTarget=0;fillColor=none;points=[[0,0.5],[1,0.5]];portConstraint=eastwest;fontSize=29;" parent="jH4gpe4Tn965D2jjeDOP-95" vertex="1">
          <mxGeometry y="390" width="870" height="90" as="geometry" />
        </mxCell>
        <mxCell id="jH4gpe4Tn965D2jjeDOP-121" value="Расширения" style="shape=partialRectangle;html=1;whiteSpace=wrap;connectable=0;fillColor=#f5f5f5;top=0;left=0;bottom=1;right=1;overflow=hidden;fontSize=16;fontColor=#333333;strokeColor=#666666;perimeterSpacing=1;align=left;fontStyle=1;strokeWidth=1;" parent="jH4gpe4Tn965D2jjeDOP-120" vertex="1">
          <mxGeometry width="290" height="90" as="geometry">
            <mxRectangle width="290" height="90" as="alternateBounds" />
          </mxGeometry>
        </mxCell>
        <mxCell id="jH4gpe4Tn965D2jjeDOP-122" value="Товар не найден:&lt;br&gt;2.а. Система отображает пользователю сообщение о том, что товар не найден.&lt;br&gt;2.b. Пользователь возвращается на шаг 1 основного сценария." style="shape=partialRectangle;html=1;whiteSpace=wrap;connectable=0;top=0;left=0;bottom=1;right=0;overflow=hidden;fontSize=16;align=left;verticalAlign=top;strokeWidth=1;strokeColor=#666666;" parent="jH4gpe4Tn965D2jjeDOP-120" vertex="1">
          <mxGeometry x="290" width="580" height="90" as="geometry">
            <mxRectangle width="580" height="90" as="alternateBounds" />
          </mxGeometry>
        </mxCell>
        <mxCell id="jH4gpe4Tn965D2jjeDOP-123" style="shape=tableRow;horizontal=0;startSize=0;swimlaneHead=0;swimlaneBody=0;top=0;left=0;bottom=0;right=0;collapsible=0;dropTarget=0;fillColor=none;points=[[0,0.5],[1,0.5]];portConstraint=eastwest;fontSize=29;" parent="jH4gpe4Tn965D2jjeDOP-95" vertex="1">
          <mxGeometry y="480" width="870" height="40" as="geometry" />
        </mxCell>
        <mxCell id="jH4gpe4Tn965D2jjeDOP-124" value="Изменения в технологии и данных" style="shape=partialRectangle;html=1;whiteSpace=wrap;connectable=0;fillColor=#f5f5f5;top=0;left=0;bottom=0;right=1;overflow=hidden;fontSize=16;fontColor=#333333;strokeColor=#666666;strokeWidth=1;perimeterSpacing=1;align=left;fontStyle=1" parent="jH4gpe4Tn965D2jjeDOP-123" vertex="1">
          <mxGeometry width="290" height="40" as="geometry">
            <mxRectangle width="290" height="40" as="alternateBounds" />
          </mxGeometry>
        </mxCell>
        <mxCell id="jH4gpe4Tn965D2jjeDOP-125" value="Использовать каталог товаров" style="shape=partialRectangle;html=1;whiteSpace=wrap;connectable=0;top=0;left=0;bottom=0;right=0;overflow=hidden;fontSize=16;align=left;verticalAlign=top;strokeWidth=1;strokeColor=#666666;" parent="jH4gpe4Tn965D2jjeDOP-123" vertex="1">
          <mxGeometry x="290" width="580" height="40" as="geometry">
            <mxRectangle width="580" height="40" as="alternateBounds" />
          </mxGeometry>
        </mxCell>
        <mxCell id="jH4gpe4Tn965D2jjeDOP-126" value="" style="shape=table;html=1;whiteSpace=wrap;startSize=0;container=1;collapsible=0;childLayout=tableLayout;fontSize=29;columnLines=1;rowLines=1;strokeColor=#666666;swimlaneLine=1;swimlaneFillColor=none;fillColor=#f5f5f5;fontColor=#333333;strokeWidth=2;shadow=1;" parent="jH4gpe4Tn965D2jjeDOP-1" vertex="1">
          <mxGeometry x="3580" y="-950" width="870" height="1020.0000000000009" as="geometry" />
        </mxCell>
        <mxCell id="jH4gpe4Tn965D2jjeDOP-127" value="" style="shape=tableRow;horizontal=0;startSize=0;swimlaneHead=0;swimlaneBody=0;top=0;left=0;bottom=0;right=0;collapsible=0;dropTarget=0;fillColor=none;points=[[0,0.5],[1,0.5]];portConstraint=eastwest;fontSize=29;" parent="jH4gpe4Tn965D2jjeDOP-126" vertex="1">
          <mxGeometry width="870" height="40" as="geometry" />
        </mxCell>
        <mxCell id="jH4gpe4Tn965D2jjeDOP-128" value="&lt;font style=&quot;font-size: 18px;&quot;&gt;Уникальный код и название&lt;/font&gt;" style="shape=partialRectangle;html=1;whiteSpace=wrap;connectable=0;fillColor=#f5f5f5;top=0;left=0;bottom=1;right=1;overflow=hidden;fontSize=29;align=left;fontStyle=1;fontColor=#333333;strokeColor=#666666;labelBorderColor=none;verticalAlign=middle;spacing=2;strokeWidth=1;" parent="jH4gpe4Tn965D2jjeDOP-127" vertex="1">
          <mxGeometry width="290" height="40" as="geometry">
            <mxRectangle width="290" height="40" as="alternateBounds" />
          </mxGeometry>
        </mxCell>
        <mxCell id="jH4gpe4Tn965D2jjeDOP-129" value="&lt;font style=&quot;font-size: 18px;&quot;&gt;ВИ-4: Оформить заказ&lt;/font&gt;" style="shape=partialRectangle;html=1;whiteSpace=wrap;connectable=0;fillColor=#f5f5f5;top=0;left=0;bottom=1;right=0;overflow=hidden;fontSize=29;fontStyle=1;align=left;fontColor=#333333;strokeColor=#666666;verticalAlign=top;strokeWidth=1;" parent="jH4gpe4Tn965D2jjeDOP-127" vertex="1">
          <mxGeometry x="290" width="580" height="40" as="geometry">
            <mxRectangle width="580" height="40" as="alternateBounds" />
          </mxGeometry>
        </mxCell>
        <mxCell id="jH4gpe4Tn965D2jjeDOP-130" value="" style="shape=tableRow;horizontal=0;startSize=0;swimlaneHead=0;swimlaneBody=0;top=0;left=0;bottom=0;right=0;collapsible=0;dropTarget=0;fillColor=none;points=[[0,0.5],[1,0.5]];portConstraint=eastwest;fontSize=29;" parent="jH4gpe4Tn965D2jjeDOP-126" vertex="1">
          <mxGeometry y="40" width="870" height="40" as="geometry" />
        </mxCell>
        <mxCell id="jH4gpe4Tn965D2jjeDOP-131" value="&lt;font style=&quot;font-size: 16px;&quot;&gt;Контекст использования&lt;/font&gt;" style="shape=partialRectangle;html=1;whiteSpace=wrap;connectable=0;fillColor=#f5f5f5;top=0;left=0;bottom=1;right=1;overflow=hidden;fontSize=16;fontColor=#333333;strokeColor=#666666;perimeterSpacing=4;align=left;fontStyle=1;verticalAlign=top;strokeWidth=1;" parent="jH4gpe4Tn965D2jjeDOP-130" vertex="1">
          <mxGeometry width="290" height="40" as="geometry">
            <mxRectangle width="290" height="40" as="alternateBounds" />
          </mxGeometry>
        </mxCell>
        <mxCell id="jH4gpe4Tn965D2jjeDOP-132" value="Заказ выбранного товара" style="shape=partialRectangle;html=1;whiteSpace=wrap;connectable=0;top=0;left=0;bottom=1;right=0;overflow=hidden;fontSize=16;align=left;verticalAlign=top;strokeWidth=1;strokeColor=#666666;" parent="jH4gpe4Tn965D2jjeDOP-130" vertex="1">
          <mxGeometry x="290" width="580" height="40" as="geometry">
            <mxRectangle width="580" height="40" as="alternateBounds" />
          </mxGeometry>
        </mxCell>
        <mxCell id="jH4gpe4Tn965D2jjeDOP-133" value="" style="shape=tableRow;horizontal=0;startSize=0;swimlaneHead=0;swimlaneBody=0;top=0;left=0;bottom=0;right=0;collapsible=0;dropTarget=0;fillColor=none;points=[[0,0.5],[1,0.5]];portConstraint=eastwest;fontSize=29;" parent="jH4gpe4Tn965D2jjeDOP-126" vertex="1">
          <mxGeometry y="80" width="870" height="40" as="geometry" />
        </mxCell>
        <mxCell id="jH4gpe4Tn965D2jjeDOP-134" value="&lt;font style=&quot;font-size: 16px;&quot;&gt;Область действия&lt;/font&gt;" style="shape=partialRectangle;html=1;whiteSpace=wrap;connectable=0;fillColor=#f5f5f5;top=0;left=0;bottom=1;right=1;overflow=hidden;fontSize=16;fontColor=#333333;strokeColor=#666666;align=left;fontStyle=1;verticalAlign=top;strokeWidth=1;" parent="jH4gpe4Tn965D2jjeDOP-133" vertex="1">
          <mxGeometry width="290" height="40" as="geometry">
            <mxRectangle width="290" height="40" as="alternateBounds" />
          </mxGeometry>
        </mxCell>
        <mxCell id="jH4gpe4Tn965D2jjeDOP-135" value="Веб-приложение Накарабине" style="shape=partialRectangle;html=1;whiteSpace=wrap;connectable=0;top=0;left=0;bottom=1;right=0;overflow=hidden;fontSize=16;align=left;verticalAlign=top;strokeWidth=1;strokeColor=#666666;" parent="jH4gpe4Tn965D2jjeDOP-133" vertex="1">
          <mxGeometry x="290" width="580" height="40" as="geometry">
            <mxRectangle width="580" height="40" as="alternateBounds" />
          </mxGeometry>
        </mxCell>
        <mxCell id="jH4gpe4Tn965D2jjeDOP-136" style="shape=tableRow;horizontal=0;startSize=0;swimlaneHead=0;swimlaneBody=0;top=0;left=0;bottom=0;right=0;collapsible=0;dropTarget=0;fillColor=none;points=[[0,0.5],[1,0.5]];portConstraint=eastwest;fontSize=29;" parent="jH4gpe4Tn965D2jjeDOP-126" vertex="1">
          <mxGeometry y="120" width="870" height="40" as="geometry" />
        </mxCell>
        <mxCell id="jH4gpe4Tn965D2jjeDOP-137" value="Основное действующее лицо" style="shape=partialRectangle;html=1;whiteSpace=wrap;connectable=0;fillColor=#f5f5f5;top=0;left=0;bottom=1;right=1;overflow=hidden;fontSize=16;fontColor=#333333;strokeColor=#666666;align=left;fontStyle=1;verticalAlign=top;strokeWidth=1;" parent="jH4gpe4Tn965D2jjeDOP-136" vertex="1">
          <mxGeometry width="290" height="40" as="geometry">
            <mxRectangle width="290" height="40" as="alternateBounds" />
          </mxGeometry>
        </mxCell>
        <mxCell id="jH4gpe4Tn965D2jjeDOP-138" value="Пользователь" style="shape=partialRectangle;html=1;whiteSpace=wrap;connectable=0;top=0;left=0;bottom=1;right=0;overflow=hidden;fontSize=16;align=left;verticalAlign=top;strokeWidth=1;strokeColor=#666666;" parent="jH4gpe4Tn965D2jjeDOP-136" vertex="1">
          <mxGeometry x="290" width="580" height="40" as="geometry">
            <mxRectangle width="580" height="40" as="alternateBounds" />
          </mxGeometry>
        </mxCell>
        <mxCell id="jH4gpe4Tn965D2jjeDOP-139" style="shape=tableRow;horizontal=0;startSize=0;swimlaneHead=0;swimlaneBody=0;top=0;left=0;bottom=0;right=0;collapsible=0;dropTarget=0;fillColor=none;points=[[0,0.5],[1,0.5]];portConstraint=eastwest;fontSize=29;" parent="jH4gpe4Tn965D2jjeDOP-126" vertex="1">
          <mxGeometry y="160" width="870" height="50" as="geometry" />
        </mxCell>
        <mxCell id="jH4gpe4Tn965D2jjeDOP-140" value="Предусловие" style="shape=partialRectangle;html=1;whiteSpace=wrap;connectable=0;fillColor=#f5f5f5;top=0;left=0;bottom=1;right=1;overflow=hidden;fontSize=16;fontColor=#333333;strokeColor=#666666;align=left;fontStyle=1;verticalAlign=top;strokeWidth=1;" parent="jH4gpe4Tn965D2jjeDOP-139" vertex="1">
          <mxGeometry width="290" height="50" as="geometry">
            <mxRectangle width="290" height="50" as="alternateBounds" />
          </mxGeometry>
        </mxCell>
        <mxCell id="jH4gpe4Tn965D2jjeDOP-141" value="Успешно выполнен один из сценариев: «Зарегистрироваться в Личном кабинете» или «Авторизоваться в Личном кабинете»" style="shape=partialRectangle;html=1;whiteSpace=wrap;connectable=0;top=0;left=0;bottom=1;right=0;overflow=hidden;fontSize=16;align=left;verticalAlign=top;strokeWidth=1;strokeColor=#666666;" parent="jH4gpe4Tn965D2jjeDOP-139" vertex="1">
          <mxGeometry x="290" width="580" height="50" as="geometry">
            <mxRectangle width="580" height="50" as="alternateBounds" />
          </mxGeometry>
        </mxCell>
        <mxCell id="jH4gpe4Tn965D2jjeDOP-142" style="shape=tableRow;horizontal=0;startSize=0;swimlaneHead=0;swimlaneBody=0;top=0;left=0;bottom=0;right=0;collapsible=0;dropTarget=0;fillColor=none;points=[[0,0.5],[1,0.5]];portConstraint=eastwest;fontSize=29;" parent="jH4gpe4Tn965D2jjeDOP-126" vertex="1">
          <mxGeometry y="210" width="870" height="50" as="geometry" />
        </mxCell>
        <mxCell id="jH4gpe4Tn965D2jjeDOP-143" value="Гарантии успеха" style="shape=partialRectangle;html=1;whiteSpace=wrap;connectable=0;fillColor=#f5f5f5;top=0;left=0;bottom=1;right=1;overflow=hidden;fontSize=16;fontColor=#333333;strokeColor=#666666;align=left;fontStyle=1;verticalAlign=top;strokeWidth=1;" parent="jH4gpe4Tn965D2jjeDOP-142" vertex="1">
          <mxGeometry width="290" height="50" as="geometry">
            <mxRectangle width="290" height="50" as="alternateBounds" />
          </mxGeometry>
        </mxCell>
        <mxCell id="jH4gpe4Tn965D2jjeDOP-144" value="— Товар успешно заказан&lt;br&gt;— Товар не заказан" style="shape=partialRectangle;html=1;whiteSpace=wrap;connectable=0;top=0;left=0;bottom=1;right=0;overflow=hidden;fontSize=16;align=left;verticalAlign=top;strokeWidth=1;strokeColor=#666666;" parent="jH4gpe4Tn965D2jjeDOP-142" vertex="1">
          <mxGeometry x="290" width="580" height="50" as="geometry">
            <mxRectangle width="580" height="50" as="alternateBounds" />
          </mxGeometry>
        </mxCell>
        <mxCell id="jH4gpe4Tn965D2jjeDOP-145" style="shape=tableRow;horizontal=0;startSize=0;swimlaneHead=0;swimlaneBody=0;top=0;left=0;bottom=0;right=0;collapsible=0;dropTarget=0;fillColor=none;points=[[0,0.5],[1,0.5]];portConstraint=eastwest;fontSize=29;" parent="jH4gpe4Tn965D2jjeDOP-126" vertex="1">
          <mxGeometry y="260" width="870" height="40" as="geometry" />
        </mxCell>
        <mxCell id="jH4gpe4Tn965D2jjeDOP-146" value="Триггер" style="shape=partialRectangle;html=1;whiteSpace=wrap;connectable=0;fillColor=#f5f5f5;top=0;left=0;bottom=1;right=1;overflow=hidden;fontSize=16;fontColor=#333333;strokeColor=#666666;perimeterSpacing=1;align=left;fontStyle=1;verticalAlign=top;strokeWidth=1;" parent="jH4gpe4Tn965D2jjeDOP-145" vertex="1">
          <mxGeometry width="290" height="40" as="geometry">
            <mxRectangle width="290" height="40" as="alternateBounds" />
          </mxGeometry>
        </mxCell>
        <mxCell id="jH4gpe4Tn965D2jjeDOP-147" value="Пользователь хочет заказать понравившиеся ему товары" style="shape=partialRectangle;html=1;whiteSpace=wrap;connectable=0;top=0;left=0;bottom=1;right=0;overflow=hidden;fontSize=16;align=left;verticalAlign=top;strokeWidth=1;strokeColor=#666666;" parent="jH4gpe4Tn965D2jjeDOP-145" vertex="1">
          <mxGeometry x="290" width="580" height="40" as="geometry">
            <mxRectangle width="580" height="40" as="alternateBounds" />
          </mxGeometry>
        </mxCell>
        <mxCell id="jH4gpe4Tn965D2jjeDOP-148" style="shape=tableRow;horizontal=0;startSize=0;swimlaneHead=0;swimlaneBody=0;top=0;left=0;bottom=0;right=0;collapsible=0;dropTarget=0;fillColor=none;points=[[0,0.5],[1,0.5]];portConstraint=eastwest;fontSize=29;" parent="jH4gpe4Tn965D2jjeDOP-126" vertex="1">
          <mxGeometry y="300" width="870" height="280" as="geometry" />
        </mxCell>
        <mxCell id="jH4gpe4Tn965D2jjeDOP-149" value="Базовый сценарий" style="shape=partialRectangle;html=1;whiteSpace=wrap;connectable=0;fillColor=#f5f5f5;top=0;left=0;bottom=1;right=1;overflow=hidden;fontSize=16;fontColor=#333333;strokeColor=#666666;perimeterSpacing=1;align=left;fontStyle=1;verticalAlign=top;strokeWidth=1;" parent="jH4gpe4Tn965D2jjeDOP-148" vertex="1">
          <mxGeometry width="290" height="280" as="geometry">
            <mxRectangle width="290" height="280" as="alternateBounds" />
          </mxGeometry>
        </mxCell>
        <mxCell id="jH4gpe4Tn965D2jjeDOP-150" value="Заказ успешно оформлен:&lt;br&gt;1. Пользователь просматривает товар к заказу.&lt;br&gt;2. Система отображает информацию о товаре.&lt;br&gt;3. Пользователь выбирает действие заказа товара.&lt;br&gt;4. Система проверяет, что пользователь авторизован в Личном кабинете.&lt;br&gt;5. Пользователь выбирает количество товара.&lt;br&gt;6. Пользователь подтверждает состав заказа.&lt;br&gt;7. Пользователь заполняет необходимую информацию о доставке: город, индекс, адрес.&amp;nbsp;&lt;br&gt;8. Система рассчитывает дату доставки.&lt;br&gt;9. Пользователь оплачивает заказ.&lt;br&gt;10. Система присваивает заказу номер и дату.&lt;br&gt;11. Система отображает информацию о том, что заказ был успешно оформлен." style="shape=partialRectangle;html=1;whiteSpace=wrap;connectable=0;top=0;left=0;bottom=1;right=0;overflow=hidden;fontSize=16;align=left;verticalAlign=top;strokeWidth=1;strokeColor=#666666;" parent="jH4gpe4Tn965D2jjeDOP-148" vertex="1">
          <mxGeometry x="290" width="580" height="280" as="geometry">
            <mxRectangle width="580" height="280" as="alternateBounds" />
          </mxGeometry>
        </mxCell>
        <mxCell id="jH4gpe4Tn965D2jjeDOP-151" style="shape=tableRow;horizontal=0;startSize=0;swimlaneHead=0;swimlaneBody=0;top=0;left=0;bottom=0;right=0;collapsible=0;dropTarget=0;fillColor=none;points=[[0,0.5],[1,0.5]];portConstraint=eastwest;fontSize=29;" parent="jH4gpe4Tn965D2jjeDOP-126" vertex="1">
          <mxGeometry y="580" width="870" height="400" as="geometry" />
        </mxCell>
        <mxCell id="jH4gpe4Tn965D2jjeDOP-152" value="Расширения" style="shape=partialRectangle;html=1;whiteSpace=wrap;connectable=0;fillColor=#f5f5f5;top=0;left=0;bottom=1;right=1;overflow=hidden;fontSize=16;fontColor=#333333;strokeColor=#666666;perimeterSpacing=1;align=left;fontStyle=1;verticalAlign=top;strokeWidth=1;" parent="jH4gpe4Tn965D2jjeDOP-151" vertex="1">
          <mxGeometry width="290" height="400" as="geometry">
            <mxRectangle width="290" height="400" as="alternateBounds" />
          </mxGeometry>
        </mxCell>
        <mxCell id="jH4gpe4Tn965D2jjeDOP-153" value="Пользователь не авторизован в Личном кабинете:&lt;br&gt;4.а. Система выводит сообщение о том, что для совершения заказа необходимо авторизоваться или зарегистрироваться в Личном кабинете.&lt;br&gt;4.b. Пользователь выполняет один из сценариев: «Зарегистрироваться в Личном кабинете» или «Авторизоваться в Личном кабинете».&lt;br&gt;4.с. Система переходит на шаг 4 основного сценария.&lt;br&gt;&lt;br&gt;Пользователь хочет заказать несколько товаров:&lt;br&gt;6.a. Пользователь просматривает доступные для заказа товары.&lt;br&gt;6.b. Пользователь просматривает товар к заказу.&lt;br&gt;6.c. Система отображает информацию о товаре.&lt;br&gt;6.d. Пользователь выбирает действие заказа товара.&lt;br&gt;6.e. Пользователь выбирает количество товара.&lt;br&gt;6.f. Шаги 6.a – 6.e. повторяются для всех товаров, которые Пользователь хочет заказать.&lt;br&gt;6.g. Пользователь переходит на шаг 6 основного сценария.&lt;br&gt;&lt;br&gt;Заказ не оформлен:&lt;br&gt;11.а. Система отображает информацию о том, что заказ не был оформлен.&lt;br&gt;11.b.  Система переходит на шаг 4 основного сценария." style="shape=partialRectangle;html=1;whiteSpace=wrap;connectable=0;top=0;left=0;bottom=1;right=0;overflow=hidden;fontSize=16;align=left;verticalAlign=top;strokeWidth=1;strokeColor=#666666;" parent="jH4gpe4Tn965D2jjeDOP-151" vertex="1">
          <mxGeometry x="290" width="580" height="400" as="geometry">
            <mxRectangle width="580" height="400" as="alternateBounds" />
          </mxGeometry>
        </mxCell>
        <mxCell id="jH4gpe4Tn965D2jjeDOP-154" style="shape=tableRow;horizontal=0;startSize=0;swimlaneHead=0;swimlaneBody=0;top=0;left=0;bottom=0;right=0;collapsible=0;dropTarget=0;fillColor=none;points=[[0,0.5],[1,0.5]];portConstraint=eastwest;fontSize=29;" parent="jH4gpe4Tn965D2jjeDOP-126" vertex="1">
          <mxGeometry y="980" width="870" height="40" as="geometry" />
        </mxCell>
        <mxCell id="jH4gpe4Tn965D2jjeDOP-155" value="Изменения в технологии и данных" style="shape=partialRectangle;html=1;whiteSpace=wrap;connectable=0;fillColor=#f5f5f5;top=0;left=0;bottom=0;right=0;overflow=hidden;fontSize=16;fontColor=#333333;strokeColor=#666666;strokeWidth=1;perimeterSpacing=1;align=left;fontStyle=1" parent="jH4gpe4Tn965D2jjeDOP-154" vertex="1">
          <mxGeometry width="290" height="40" as="geometry">
            <mxRectangle width="290" height="40" as="alternateBounds" />
          </mxGeometry>
        </mxCell>
        <mxCell id="jH4gpe4Tn965D2jjeDOP-156" value="Использовать хранение заказов пользователя" style="shape=partialRectangle;html=1;whiteSpace=wrap;connectable=0;top=0;left=0;bottom=0;right=0;overflow=hidden;fontSize=16;align=left;verticalAlign=top;strokeWidth=1;strokeColor=#666666;" parent="jH4gpe4Tn965D2jjeDOP-154" vertex="1">
          <mxGeometry x="290" width="580" height="40" as="geometry">
            <mxRectangle width="580" height="40" as="alternateBounds" />
          </mxGeometry>
        </mxCell>
        <mxCell id="jH4gpe4Tn965D2jjeDOP-157" value="" style="shape=table;html=1;whiteSpace=wrap;startSize=0;container=1;collapsible=0;childLayout=tableLayout;fontSize=29;columnLines=1;rowLines=1;swimlaneLine=1;swimlaneFillColor=none;strokeWidth=2;strokeColor=#666666;shadow=1;" parent="jH4gpe4Tn965D2jjeDOP-1" vertex="1">
          <mxGeometry x="3580" y="90" width="870" height="610.0000000000009" as="geometry" />
        </mxCell>
        <mxCell id="jH4gpe4Tn965D2jjeDOP-158" value="" style="shape=tableRow;horizontal=0;startSize=0;swimlaneHead=0;swimlaneBody=0;top=0;left=0;bottom=0;right=0;collapsible=0;dropTarget=0;fillColor=none;points=[[0,0.5],[1,0.5]];portConstraint=eastwest;fontSize=29;" parent="jH4gpe4Tn965D2jjeDOP-157" vertex="1">
          <mxGeometry width="870" height="40" as="geometry" />
        </mxCell>
        <mxCell id="jH4gpe4Tn965D2jjeDOP-159" value="&lt;font style=&quot;font-size: 18px;&quot;&gt;Уникальный код и название&lt;/font&gt;" style="shape=partialRectangle;html=1;whiteSpace=wrap;connectable=0;fillColor=#f5f5f5;top=0;left=0;bottom=1;right=1;overflow=hidden;fontSize=29;align=left;fontStyle=1;fontColor=#333333;strokeColor=#666666;labelBorderColor=none;verticalAlign=middle;" parent="jH4gpe4Tn965D2jjeDOP-158" vertex="1">
          <mxGeometry width="290" height="40" as="geometry">
            <mxRectangle width="290" height="40" as="alternateBounds" />
          </mxGeometry>
        </mxCell>
        <mxCell id="jH4gpe4Tn965D2jjeDOP-160" value="&lt;font style=&quot;font-size: 18px;&quot;&gt;ВИ-5: Зарегистрироваться в Личном кабинете&lt;/font&gt;" style="shape=partialRectangle;html=1;whiteSpace=wrap;connectable=0;fillColor=#f5f5f5;top=0;left=0;bottom=1;right=0;overflow=hidden;fontSize=29;fontStyle=1;align=left;fontColor=#333333;strokeColor=#666666;verticalAlign=top;" parent="jH4gpe4Tn965D2jjeDOP-158" vertex="1">
          <mxGeometry x="290" width="580" height="40" as="geometry">
            <mxRectangle width="580" height="40" as="alternateBounds" />
          </mxGeometry>
        </mxCell>
        <mxCell id="jH4gpe4Tn965D2jjeDOP-161" value="" style="shape=tableRow;horizontal=0;startSize=0;swimlaneHead=0;swimlaneBody=0;top=0;left=0;bottom=0;right=0;collapsible=0;dropTarget=0;fillColor=none;points=[[0,0.5],[1,0.5]];portConstraint=eastwest;fontSize=29;" parent="jH4gpe4Tn965D2jjeDOP-157" vertex="1">
          <mxGeometry y="40" width="870" height="40" as="geometry" />
        </mxCell>
        <mxCell id="jH4gpe4Tn965D2jjeDOP-162" value="&lt;font style=&quot;font-size: 16px;&quot;&gt;Контекст использования&lt;/font&gt;" style="shape=partialRectangle;html=1;whiteSpace=wrap;connectable=0;fillColor=#f5f5f5;top=0;left=0;bottom=1;right=1;overflow=hidden;fontSize=16;fontColor=#333333;strokeColor=#666666;perimeterSpacing=4;align=left;fontStyle=1;verticalAlign=top;" parent="jH4gpe4Tn965D2jjeDOP-161" vertex="1">
          <mxGeometry width="290" height="40" as="geometry">
            <mxRectangle width="290" height="40" as="alternateBounds" />
          </mxGeometry>
        </mxCell>
        <mxCell id="jH4gpe4Tn965D2jjeDOP-163" value="Регистрация в веб-приложении Накарабине" style="shape=partialRectangle;html=1;whiteSpace=wrap;connectable=0;top=0;left=0;bottom=1;right=0;overflow=hidden;fontSize=16;align=left;verticalAlign=top;strokeColor=#666666;" parent="jH4gpe4Tn965D2jjeDOP-161" vertex="1">
          <mxGeometry x="290" width="580" height="40" as="geometry">
            <mxRectangle width="580" height="40" as="alternateBounds" />
          </mxGeometry>
        </mxCell>
        <mxCell id="jH4gpe4Tn965D2jjeDOP-164" value="" style="shape=tableRow;horizontal=0;startSize=0;swimlaneHead=0;swimlaneBody=0;top=0;left=0;bottom=0;right=0;collapsible=0;dropTarget=0;fillColor=none;points=[[0,0.5],[1,0.5]];portConstraint=eastwest;fontSize=29;" parent="jH4gpe4Tn965D2jjeDOP-157" vertex="1">
          <mxGeometry y="80" width="870" height="40" as="geometry" />
        </mxCell>
        <mxCell id="jH4gpe4Tn965D2jjeDOP-165" value="&lt;font style=&quot;font-size: 16px;&quot;&gt;Область действия&lt;/font&gt;" style="shape=partialRectangle;html=1;whiteSpace=wrap;connectable=0;fillColor=#f5f5f5;top=0;left=0;bottom=1;right=1;overflow=hidden;fontSize=16;fontColor=#333333;strokeColor=#666666;align=left;fontStyle=1;verticalAlign=top;" parent="jH4gpe4Tn965D2jjeDOP-164" vertex="1">
          <mxGeometry width="290" height="40" as="geometry">
            <mxRectangle width="290" height="40" as="alternateBounds" />
          </mxGeometry>
        </mxCell>
        <mxCell id="jH4gpe4Tn965D2jjeDOP-166" value="Веб-приложение Накарабине" style="shape=partialRectangle;html=1;whiteSpace=wrap;connectable=0;top=0;left=0;bottom=1;right=0;overflow=hidden;fontSize=16;align=left;verticalAlign=top;strokeColor=#666666;" parent="jH4gpe4Tn965D2jjeDOP-164" vertex="1">
          <mxGeometry x="290" width="580" height="40" as="geometry">
            <mxRectangle width="580" height="40" as="alternateBounds" />
          </mxGeometry>
        </mxCell>
        <mxCell id="jH4gpe4Tn965D2jjeDOP-167" style="shape=tableRow;horizontal=0;startSize=0;swimlaneHead=0;swimlaneBody=0;top=0;left=0;bottom=0;right=0;collapsible=0;dropTarget=0;fillColor=none;points=[[0,0.5],[1,0.5]];portConstraint=eastwest;fontSize=29;" parent="jH4gpe4Tn965D2jjeDOP-157" vertex="1">
          <mxGeometry y="120" width="870" height="40" as="geometry" />
        </mxCell>
        <mxCell id="jH4gpe4Tn965D2jjeDOP-168" value="Основное действующее лицо" style="shape=partialRectangle;html=1;whiteSpace=wrap;connectable=0;fillColor=#f5f5f5;top=0;left=0;bottom=1;right=1;overflow=hidden;fontSize=16;fontColor=#333333;strokeColor=#666666;align=left;fontStyle=1;verticalAlign=top;" parent="jH4gpe4Tn965D2jjeDOP-167" vertex="1">
          <mxGeometry width="290" height="40" as="geometry">
            <mxRectangle width="290" height="40" as="alternateBounds" />
          </mxGeometry>
        </mxCell>
        <mxCell id="jH4gpe4Tn965D2jjeDOP-169" value="Пользователь" style="shape=partialRectangle;html=1;whiteSpace=wrap;connectable=0;top=0;left=0;bottom=1;right=0;overflow=hidden;fontSize=16;align=left;verticalAlign=top;strokeColor=#666666;" parent="jH4gpe4Tn965D2jjeDOP-167" vertex="1">
          <mxGeometry x="290" width="580" height="40" as="geometry">
            <mxRectangle width="580" height="40" as="alternateBounds" />
          </mxGeometry>
        </mxCell>
        <mxCell id="jH4gpe4Tn965D2jjeDOP-170" style="shape=tableRow;horizontal=0;startSize=0;swimlaneHead=0;swimlaneBody=0;top=0;left=0;bottom=0;right=0;collapsible=0;dropTarget=0;fillColor=none;points=[[0,0.5],[1,0.5]];portConstraint=eastwest;fontSize=29;" parent="jH4gpe4Tn965D2jjeDOP-157" vertex="1">
          <mxGeometry y="160" width="870" height="40" as="geometry" />
        </mxCell>
        <mxCell id="jH4gpe4Tn965D2jjeDOP-171" value="Предусловие" style="shape=partialRectangle;html=1;whiteSpace=wrap;connectable=0;fillColor=#f5f5f5;top=0;left=0;bottom=1;right=1;overflow=hidden;fontSize=16;fontColor=#333333;strokeColor=#666666;align=left;fontStyle=1;verticalAlign=top;" parent="jH4gpe4Tn965D2jjeDOP-170" vertex="1">
          <mxGeometry width="290" height="40" as="geometry">
            <mxRectangle width="290" height="40" as="alternateBounds" />
          </mxGeometry>
        </mxCell>
        <mxCell id="jH4gpe4Tn965D2jjeDOP-172" value="В любой момент при использовании Накарабине" style="shape=partialRectangle;html=1;whiteSpace=wrap;connectable=0;top=0;left=0;bottom=1;right=0;overflow=hidden;fontSize=16;align=left;verticalAlign=top;strokeColor=#666666;" parent="jH4gpe4Tn965D2jjeDOP-170" vertex="1">
          <mxGeometry x="290" width="580" height="40" as="geometry">
            <mxRectangle width="580" height="40" as="alternateBounds" />
          </mxGeometry>
        </mxCell>
        <mxCell id="jH4gpe4Tn965D2jjeDOP-173" style="shape=tableRow;horizontal=0;startSize=0;swimlaneHead=0;swimlaneBody=0;top=0;left=0;bottom=0;right=0;collapsible=0;dropTarget=0;fillColor=none;points=[[0,0.5],[1,0.5]];portConstraint=eastwest;fontSize=29;" parent="jH4gpe4Tn965D2jjeDOP-157" vertex="1">
          <mxGeometry y="200" width="870" height="50" as="geometry" />
        </mxCell>
        <mxCell id="jH4gpe4Tn965D2jjeDOP-174" value="Гарантии успеха" style="shape=partialRectangle;html=1;whiteSpace=wrap;connectable=0;fillColor=#f5f5f5;top=0;left=0;bottom=1;right=1;overflow=hidden;fontSize=16;fontColor=#333333;strokeColor=#666666;align=left;fontStyle=1;verticalAlign=top;" parent="jH4gpe4Tn965D2jjeDOP-173" vertex="1">
          <mxGeometry width="290" height="50" as="geometry">
            <mxRectangle width="290" height="50" as="alternateBounds" />
          </mxGeometry>
        </mxCell>
        <mxCell id="jH4gpe4Tn965D2jjeDOP-175" value="— Регистрация выполнена&lt;br&gt;— Регистрация не выполнена" style="shape=partialRectangle;html=1;whiteSpace=wrap;connectable=0;top=0;left=0;bottom=1;right=0;overflow=hidden;fontSize=16;align=left;verticalAlign=top;strokeColor=#666666;" parent="jH4gpe4Tn965D2jjeDOP-173" vertex="1">
          <mxGeometry x="290" width="580" height="50" as="geometry">
            <mxRectangle width="580" height="50" as="alternateBounds" />
          </mxGeometry>
        </mxCell>
        <mxCell id="jH4gpe4Tn965D2jjeDOP-176" style="shape=tableRow;horizontal=0;startSize=0;swimlaneHead=0;swimlaneBody=0;top=0;left=0;bottom=0;right=0;collapsible=0;dropTarget=0;fillColor=none;points=[[0,0.5],[1,0.5]];portConstraint=eastwest;fontSize=29;" parent="jH4gpe4Tn965D2jjeDOP-157" vertex="1">
          <mxGeometry y="250" width="870" height="40" as="geometry" />
        </mxCell>
        <mxCell id="jH4gpe4Tn965D2jjeDOP-177" value="Триггер" style="shape=partialRectangle;html=1;whiteSpace=wrap;connectable=0;fillColor=#f5f5f5;top=0;left=0;bottom=1;right=1;overflow=hidden;fontSize=16;fontColor=#333333;strokeColor=#666666;perimeterSpacing=1;align=left;fontStyle=1;verticalAlign=top;" parent="jH4gpe4Tn965D2jjeDOP-176" vertex="1">
          <mxGeometry width="290" height="40" as="geometry">
            <mxRectangle width="290" height="40" as="alternateBounds" />
          </mxGeometry>
        </mxCell>
        <mxCell id="jH4gpe4Tn965D2jjeDOP-178" value="Пользователь хочет зарегистрироваться в веб-приложении Накарабине" style="shape=partialRectangle;html=1;whiteSpace=wrap;connectable=0;top=0;left=0;bottom=1;right=0;overflow=hidden;fontSize=16;align=left;verticalAlign=top;strokeColor=#666666;" parent="jH4gpe4Tn965D2jjeDOP-176" vertex="1">
          <mxGeometry x="290" width="580" height="40" as="geometry">
            <mxRectangle width="580" height="40" as="alternateBounds" />
          </mxGeometry>
        </mxCell>
        <mxCell id="jH4gpe4Tn965D2jjeDOP-179" style="shape=tableRow;horizontal=0;startSize=0;swimlaneHead=0;swimlaneBody=0;top=0;left=0;bottom=0;right=0;collapsible=0;dropTarget=0;fillColor=none;points=[[0,0.5],[1,0.5]];portConstraint=eastwest;fontSize=29;" parent="jH4gpe4Tn965D2jjeDOP-157" vertex="1">
          <mxGeometry y="290" width="870" height="190" as="geometry" />
        </mxCell>
        <mxCell id="jH4gpe4Tn965D2jjeDOP-180" value="Базовый сценарий" style="shape=partialRectangle;html=1;whiteSpace=wrap;connectable=0;fillColor=#f5f5f5;top=0;left=0;bottom=1;right=1;overflow=hidden;fontSize=16;fontColor=#333333;strokeColor=#666666;perimeterSpacing=1;align=left;fontStyle=1;verticalAlign=top;" parent="jH4gpe4Tn965D2jjeDOP-179" vertex="1">
          <mxGeometry width="290" height="190" as="geometry">
            <mxRectangle width="290" height="190" as="alternateBounds" />
          </mxGeometry>
        </mxCell>
        <mxCell id="jH4gpe4Tn965D2jjeDOP-181" value="Регистрация выполнена:&lt;br&gt;1. Пользователь использует веб-приложение Накарабине.&lt;br&gt;2. Пользователь выбирает действие регистрации Личного кабинета.&lt;br&gt;3. Пользователь заполняет информацию: логин, пароль, ФИО, e-mail, номер телефона.&lt;br&gt;4. Система проверяет логин на уникальность.&lt;br&gt;5. Система сохраняет введённые данные и создает профиль Пользователя с указанным логином.&lt;br&gt;6. Система выводит сообщение об успешной регистрации." style="shape=partialRectangle;html=1;whiteSpace=wrap;connectable=0;top=0;left=0;bottom=1;right=0;overflow=hidden;fontSize=16;align=left;verticalAlign=top;strokeColor=#666666;" parent="jH4gpe4Tn965D2jjeDOP-179" vertex="1">
          <mxGeometry x="290" width="580" height="190" as="geometry">
            <mxRectangle width="580" height="190" as="alternateBounds" />
          </mxGeometry>
        </mxCell>
        <mxCell id="jH4gpe4Tn965D2jjeDOP-182" style="shape=tableRow;horizontal=0;startSize=0;swimlaneHead=0;swimlaneBody=0;top=0;left=0;bottom=0;right=0;collapsible=0;dropTarget=0;fillColor=none;points=[[0,0.5],[1,0.5]];portConstraint=eastwest;fontSize=29;" parent="jH4gpe4Tn965D2jjeDOP-157" vertex="1">
          <mxGeometry y="480" width="870" height="90" as="geometry" />
        </mxCell>
        <mxCell id="jH4gpe4Tn965D2jjeDOP-183" value="Расширения" style="shape=partialRectangle;html=1;whiteSpace=wrap;connectable=0;fillColor=#f5f5f5;top=0;left=0;bottom=1;right=1;overflow=hidden;fontSize=16;fontColor=#333333;strokeColor=#666666;perimeterSpacing=1;align=left;fontStyle=1;verticalAlign=top;" parent="jH4gpe4Tn965D2jjeDOP-182" vertex="1">
          <mxGeometry width="290" height="90" as="geometry">
            <mxRectangle width="290" height="90" as="alternateBounds" />
          </mxGeometry>
        </mxCell>
        <mxCell id="jH4gpe4Tn965D2jjeDOP-184" value="Регистрация не выполнена:&lt;br&gt;4.а. Система отображает информацию о том, что логин не является уникальным.&lt;br&gt;4.b.  Система переходит на шаг 3 основного сценария" style="shape=partialRectangle;html=1;whiteSpace=wrap;connectable=0;top=0;left=0;bottom=1;right=0;overflow=hidden;fontSize=16;align=left;verticalAlign=top;strokeColor=#666666;" parent="jH4gpe4Tn965D2jjeDOP-182" vertex="1">
          <mxGeometry x="290" width="580" height="90" as="geometry">
            <mxRectangle width="580" height="90" as="alternateBounds" />
          </mxGeometry>
        </mxCell>
        <mxCell id="jH4gpe4Tn965D2jjeDOP-185" style="shape=tableRow;horizontal=0;startSize=0;swimlaneHead=0;swimlaneBody=0;top=0;left=0;bottom=0;right=0;collapsible=0;dropTarget=0;points=[[0,0.5],[1,0.5]];portConstraint=eastwest;fontSize=29;" parent="jH4gpe4Tn965D2jjeDOP-157" vertex="1">
          <mxGeometry y="570" width="870" height="40" as="geometry" />
        </mxCell>
        <mxCell id="jH4gpe4Tn965D2jjeDOP-186" value="Изменения в технологии и данных" style="shape=partialRectangle;html=1;whiteSpace=wrap;connectable=0;fillColor=#f5f5f5;top=0;left=0;bottom=0;right=1;overflow=hidden;fontSize=16;fontColor=#333333;strokeColor=#666666;strokeWidth=1;perimeterSpacing=1;align=left;fontStyle=1;verticalAlign=top;" parent="jH4gpe4Tn965D2jjeDOP-185" vertex="1">
          <mxGeometry width="290" height="40" as="geometry">
            <mxRectangle width="290" height="40" as="alternateBounds" />
          </mxGeometry>
        </mxCell>
        <mxCell id="jH4gpe4Tn965D2jjeDOP-187" value="Использовать хранения данных пользователя&amp;nbsp;" style="shape=partialRectangle;html=1;whiteSpace=wrap;connectable=0;top=0;left=0;bottom=0;right=0;overflow=hidden;fontSize=16;align=left;verticalAlign=top;strokeColor=#666666;" parent="jH4gpe4Tn965D2jjeDOP-185" vertex="1">
          <mxGeometry x="290" width="580" height="40" as="geometry">
            <mxRectangle width="580" height="40" as="alternateBounds" />
          </mxGeometry>
        </mxCell>
        <mxCell id="jH4gpe4Tn965D2jjeDOP-188" value="" style="shape=table;html=1;whiteSpace=wrap;startSize=0;container=1;collapsible=0;childLayout=tableLayout;fontSize=29;columnLines=1;rowLines=1;swimlaneLine=1;swimlaneFillColor=none;shadow=1;" parent="jH4gpe4Tn965D2jjeDOP-1" vertex="1">
          <mxGeometry x="4548" y="-950" width="870" height="670.0000000000009" as="geometry" />
        </mxCell>
        <mxCell id="jH4gpe4Tn965D2jjeDOP-189" value="" style="shape=tableRow;horizontal=0;startSize=0;swimlaneHead=0;swimlaneBody=0;top=0;left=0;bottom=0;right=0;collapsible=0;dropTarget=0;fillColor=none;points=[[0,0.5],[1,0.5]];portConstraint=eastwest;fontSize=29;" parent="jH4gpe4Tn965D2jjeDOP-188" vertex="1">
          <mxGeometry width="870" height="40" as="geometry" />
        </mxCell>
        <mxCell id="jH4gpe4Tn965D2jjeDOP-190" value="&lt;font style=&quot;font-size: 18px;&quot;&gt;Уникальный код и название&lt;/font&gt;" style="shape=partialRectangle;html=1;whiteSpace=wrap;connectable=0;fillColor=#f5f5f5;top=0;left=0;bottom=1;right=1;overflow=hidden;fontSize=29;align=left;fontStyle=1;fontColor=#333333;strokeColor=#666666;labelBorderColor=none;verticalAlign=middle;" parent="jH4gpe4Tn965D2jjeDOP-189" vertex="1">
          <mxGeometry width="290" height="40" as="geometry">
            <mxRectangle width="290" height="40" as="alternateBounds" />
          </mxGeometry>
        </mxCell>
        <mxCell id="jH4gpe4Tn965D2jjeDOP-191" value="&lt;font style=&quot;font-size: 18px;&quot;&gt;ВИ-6: Авторизоваться в Личном кабинете&lt;/font&gt;" style="shape=partialRectangle;html=1;whiteSpace=wrap;connectable=0;fillColor=#f5f5f5;top=0;left=0;bottom=1;right=0;overflow=hidden;fontSize=29;fontStyle=1;align=left;fontColor=#333333;strokeColor=#000000;verticalAlign=middle;" parent="jH4gpe4Tn965D2jjeDOP-189" vertex="1">
          <mxGeometry x="290" width="580" height="40" as="geometry">
            <mxRectangle width="580" height="40" as="alternateBounds" />
          </mxGeometry>
        </mxCell>
        <mxCell id="jH4gpe4Tn965D2jjeDOP-192" value="" style="shape=tableRow;horizontal=0;startSize=0;swimlaneHead=0;swimlaneBody=0;top=0;left=0;bottom=0;right=0;collapsible=0;dropTarget=0;fillColor=none;points=[[0,0.5],[1,0.5]];portConstraint=eastwest;fontSize=29;" parent="jH4gpe4Tn965D2jjeDOP-188" vertex="1">
          <mxGeometry y="40" width="870" height="40" as="geometry" />
        </mxCell>
        <mxCell id="jH4gpe4Tn965D2jjeDOP-193" value="&lt;font style=&quot;font-size: 16px;&quot;&gt;Контекст использования&lt;/font&gt;" style="shape=partialRectangle;html=1;whiteSpace=wrap;connectable=0;fillColor=#f5f5f5;top=0;left=0;bottom=1;right=1;overflow=hidden;fontSize=16;fontColor=#333333;strokeColor=#666666;perimeterSpacing=4;align=left;fontStyle=1;verticalAlign=top;" parent="jH4gpe4Tn965D2jjeDOP-192" vertex="1">
          <mxGeometry width="290" height="40" as="geometry">
            <mxRectangle width="290" height="40" as="alternateBounds" />
          </mxGeometry>
        </mxCell>
        <mxCell id="jH4gpe4Tn965D2jjeDOP-194" value="Авторизация в веб-приложении Накарабине" style="shape=partialRectangle;html=1;whiteSpace=wrap;connectable=0;top=0;left=0;bottom=1;right=0;overflow=hidden;fontSize=16;align=left;verticalAlign=top;" parent="jH4gpe4Tn965D2jjeDOP-192" vertex="1">
          <mxGeometry x="290" width="580" height="40" as="geometry">
            <mxRectangle width="580" height="40" as="alternateBounds" />
          </mxGeometry>
        </mxCell>
        <mxCell id="jH4gpe4Tn965D2jjeDOP-195" value="" style="shape=tableRow;horizontal=0;startSize=0;swimlaneHead=0;swimlaneBody=0;top=0;left=0;bottom=0;right=0;collapsible=0;dropTarget=0;fillColor=none;points=[[0,0.5],[1,0.5]];portConstraint=eastwest;fontSize=29;" parent="jH4gpe4Tn965D2jjeDOP-188" vertex="1">
          <mxGeometry y="80" width="870" height="40" as="geometry" />
        </mxCell>
        <mxCell id="jH4gpe4Tn965D2jjeDOP-196" value="&lt;font style=&quot;font-size: 16px;&quot;&gt;Область действия&lt;/font&gt;" style="shape=partialRectangle;html=1;whiteSpace=wrap;connectable=0;fillColor=#f5f5f5;top=0;left=0;bottom=1;right=1;overflow=hidden;fontSize=16;fontColor=#333333;strokeColor=#666666;align=left;fontStyle=1;verticalAlign=top;" parent="jH4gpe4Tn965D2jjeDOP-195" vertex="1">
          <mxGeometry width="290" height="40" as="geometry">
            <mxRectangle width="290" height="40" as="alternateBounds" />
          </mxGeometry>
        </mxCell>
        <mxCell id="jH4gpe4Tn965D2jjeDOP-197" value="Веб-приложение Накарабине" style="shape=partialRectangle;html=1;whiteSpace=wrap;connectable=0;top=0;left=0;bottom=1;right=0;overflow=hidden;fontSize=16;align=left;verticalAlign=top;" parent="jH4gpe4Tn965D2jjeDOP-195" vertex="1">
          <mxGeometry x="290" width="580" height="40" as="geometry">
            <mxRectangle width="580" height="40" as="alternateBounds" />
          </mxGeometry>
        </mxCell>
        <mxCell id="jH4gpe4Tn965D2jjeDOP-198" style="shape=tableRow;horizontal=0;startSize=0;swimlaneHead=0;swimlaneBody=0;top=0;left=0;bottom=0;right=0;collapsible=0;dropTarget=0;fillColor=none;points=[[0,0.5],[1,0.5]];portConstraint=eastwest;fontSize=29;" parent="jH4gpe4Tn965D2jjeDOP-188" vertex="1">
          <mxGeometry y="120" width="870" height="40" as="geometry" />
        </mxCell>
        <mxCell id="jH4gpe4Tn965D2jjeDOP-199" value="Основное действующее лицо" style="shape=partialRectangle;html=1;whiteSpace=wrap;connectable=0;fillColor=#f5f5f5;top=0;left=0;bottom=1;right=1;overflow=hidden;fontSize=16;fontColor=#333333;strokeColor=#666666;align=left;fontStyle=1;verticalAlign=top;" parent="jH4gpe4Tn965D2jjeDOP-198" vertex="1">
          <mxGeometry width="290" height="40" as="geometry">
            <mxRectangle width="290" height="40" as="alternateBounds" />
          </mxGeometry>
        </mxCell>
        <mxCell id="jH4gpe4Tn965D2jjeDOP-200" value="Пользователь" style="shape=partialRectangle;html=1;whiteSpace=wrap;connectable=0;top=0;left=0;bottom=1;right=0;overflow=hidden;fontSize=16;align=left;verticalAlign=top;" parent="jH4gpe4Tn965D2jjeDOP-198" vertex="1">
          <mxGeometry x="290" width="580" height="40" as="geometry">
            <mxRectangle width="580" height="40" as="alternateBounds" />
          </mxGeometry>
        </mxCell>
        <mxCell id="jH4gpe4Tn965D2jjeDOP-201" style="shape=tableRow;horizontal=0;startSize=0;swimlaneHead=0;swimlaneBody=0;top=0;left=0;bottom=0;right=0;collapsible=0;dropTarget=0;fillColor=none;points=[[0,0.5],[1,0.5]];portConstraint=eastwest;fontSize=29;" parent="jH4gpe4Tn965D2jjeDOP-188" vertex="1">
          <mxGeometry y="160" width="870" height="70" as="geometry" />
        </mxCell>
        <mxCell id="jH4gpe4Tn965D2jjeDOP-202" value="Предусловие" style="shape=partialRectangle;html=1;whiteSpace=wrap;connectable=0;fillColor=#f5f5f5;top=0;left=0;bottom=1;right=1;overflow=hidden;fontSize=16;fontColor=#333333;strokeColor=#666666;align=left;fontStyle=1;verticalAlign=top;" parent="jH4gpe4Tn965D2jjeDOP-201" vertex="1">
          <mxGeometry width="290" height="70" as="geometry">
            <mxRectangle width="290" height="70" as="alternateBounds" />
          </mxGeometry>
        </mxCell>
        <mxCell id="jH4gpe4Tn965D2jjeDOP-203" value="1. В любой момент при использовании веб-приложения Накарабине.&lt;br&gt;2. Пользователь ранее успешно выполнил сценарий «Зарегистрироваться в Личном кабинете»." style="shape=partialRectangle;html=1;whiteSpace=wrap;connectable=0;top=0;left=0;bottom=1;right=0;overflow=hidden;fontSize=16;align=left;verticalAlign=top;" parent="jH4gpe4Tn965D2jjeDOP-201" vertex="1">
          <mxGeometry x="290" width="580" height="70" as="geometry">
            <mxRectangle width="580" height="70" as="alternateBounds" />
          </mxGeometry>
        </mxCell>
        <mxCell id="jH4gpe4Tn965D2jjeDOP-204" style="shape=tableRow;horizontal=0;startSize=0;swimlaneHead=0;swimlaneBody=0;top=0;left=0;bottom=0;right=0;collapsible=0;dropTarget=0;fillColor=none;points=[[0,0.5],[1,0.5]];portConstraint=eastwest;fontSize=29;" parent="jH4gpe4Tn965D2jjeDOP-188" vertex="1">
          <mxGeometry y="230" width="870" height="50" as="geometry" />
        </mxCell>
        <mxCell id="jH4gpe4Tn965D2jjeDOP-205" value="Гарантии успеха" style="shape=partialRectangle;html=1;whiteSpace=wrap;connectable=0;fillColor=#f5f5f5;top=0;left=0;bottom=1;right=1;overflow=hidden;fontSize=16;fontColor=#333333;strokeColor=#666666;align=left;fontStyle=1;verticalAlign=top;" parent="jH4gpe4Tn965D2jjeDOP-204" vertex="1">
          <mxGeometry width="290" height="50" as="geometry">
            <mxRectangle width="290" height="50" as="alternateBounds" />
          </mxGeometry>
        </mxCell>
        <mxCell id="jH4gpe4Tn965D2jjeDOP-206" value="— Авторизация выполнена&lt;br&gt;— Авторизация не выполнена" style="shape=partialRectangle;html=1;whiteSpace=wrap;connectable=0;top=0;left=0;bottom=1;right=0;overflow=hidden;fontSize=16;align=left;verticalAlign=top;" parent="jH4gpe4Tn965D2jjeDOP-204" vertex="1">
          <mxGeometry x="290" width="580" height="50" as="geometry">
            <mxRectangle width="580" height="50" as="alternateBounds" />
          </mxGeometry>
        </mxCell>
        <mxCell id="jH4gpe4Tn965D2jjeDOP-207" style="shape=tableRow;horizontal=0;startSize=0;swimlaneHead=0;swimlaneBody=0;top=0;left=0;bottom=0;right=0;collapsible=0;dropTarget=0;fillColor=none;points=[[0,0.5],[1,0.5]];portConstraint=eastwest;fontSize=29;" parent="jH4gpe4Tn965D2jjeDOP-188" vertex="1">
          <mxGeometry y="280" width="870" height="40" as="geometry" />
        </mxCell>
        <mxCell id="jH4gpe4Tn965D2jjeDOP-208" value="Триггер" style="shape=partialRectangle;html=1;whiteSpace=wrap;connectable=0;fillColor=#f5f5f5;top=0;left=0;bottom=1;right=1;overflow=hidden;fontSize=16;fontColor=#333333;strokeColor=#666666;perimeterSpacing=1;align=left;fontStyle=1;verticalAlign=top;" parent="jH4gpe4Tn965D2jjeDOP-207" vertex="1">
          <mxGeometry width="290" height="40" as="geometry">
            <mxRectangle width="290" height="40" as="alternateBounds" />
          </mxGeometry>
        </mxCell>
        <mxCell id="jH4gpe4Tn965D2jjeDOP-209" value="Пользователь хочет авторизоваться в веб-приложении Накарабине" style="shape=partialRectangle;html=1;whiteSpace=wrap;connectable=0;top=0;left=0;bottom=1;right=0;overflow=hidden;fontSize=16;align=left;verticalAlign=top;" parent="jH4gpe4Tn965D2jjeDOP-207" vertex="1">
          <mxGeometry x="290" width="580" height="40" as="geometry">
            <mxRectangle width="580" height="40" as="alternateBounds" />
          </mxGeometry>
        </mxCell>
        <mxCell id="jH4gpe4Tn965D2jjeDOP-210" style="shape=tableRow;horizontal=0;startSize=0;swimlaneHead=0;swimlaneBody=0;top=0;left=0;bottom=0;right=0;collapsible=0;dropTarget=0;fillColor=none;points=[[0,0.5],[1,0.5]];portConstraint=eastwest;fontSize=29;" parent="jH4gpe4Tn965D2jjeDOP-188" vertex="1">
          <mxGeometry y="320" width="870" height="150" as="geometry" />
        </mxCell>
        <mxCell id="jH4gpe4Tn965D2jjeDOP-211" value="Базовый сценарий" style="shape=partialRectangle;html=1;whiteSpace=wrap;connectable=0;fillColor=#f5f5f5;top=0;left=0;bottom=1;right=1;overflow=hidden;fontSize=16;fontColor=#333333;strokeColor=#666666;perimeterSpacing=1;align=left;fontStyle=1;verticalAlign=top;" parent="jH4gpe4Tn965D2jjeDOP-210" vertex="1">
          <mxGeometry width="290" height="150" as="geometry">
            <mxRectangle width="290" height="150" as="alternateBounds" />
          </mxGeometry>
        </mxCell>
        <mxCell id="jH4gpe4Tn965D2jjeDOP-212" value="Авторизация выполнена:&lt;br&gt;1. Пользователь использует веб-приложение Накарабине.&lt;br&gt;2. Пользователь выбирает действие авторизоваться в Личном кабинете.&lt;br&gt;3. Пользователь заполняет информацию: логин, пароль.&lt;br&gt;4. Система проверяет, что введенный логин существует в системе.&amp;nbsp;&lt;br&gt;5. Система проверяет соответствие введенных логина и пароля.&lt;br&gt;6. Система выводит сообщение об успешной авторизации." style="shape=partialRectangle;html=1;whiteSpace=wrap;connectable=0;top=0;left=0;bottom=1;right=0;overflow=hidden;fontSize=16;align=left;verticalAlign=top;shadow=0;" parent="jH4gpe4Tn965D2jjeDOP-210" vertex="1">
          <mxGeometry x="290" width="580" height="150" as="geometry">
            <mxRectangle width="580" height="150" as="alternateBounds" />
          </mxGeometry>
        </mxCell>
        <mxCell id="jH4gpe4Tn965D2jjeDOP-213" style="shape=tableRow;horizontal=0;startSize=0;swimlaneHead=0;swimlaneBody=0;top=0;left=0;bottom=0;right=0;collapsible=0;dropTarget=0;fillColor=none;points=[[0,0.5],[1,0.5]];portConstraint=eastwest;fontSize=29;" parent="jH4gpe4Tn965D2jjeDOP-188" vertex="1">
          <mxGeometry y="470" width="870" height="160" as="geometry" />
        </mxCell>
        <mxCell id="jH4gpe4Tn965D2jjeDOP-214" value="Расширения" style="shape=partialRectangle;html=1;whiteSpace=wrap;connectable=0;fillColor=#f5f5f5;top=0;left=0;bottom=1;right=1;overflow=hidden;fontSize=16;fontColor=#333333;strokeColor=#666666;perimeterSpacing=1;align=left;fontStyle=1;verticalAlign=top;" parent="jH4gpe4Tn965D2jjeDOP-213" vertex="1">
          <mxGeometry width="290" height="160" as="geometry">
            <mxRectangle width="290" height="160" as="alternateBounds" />
          </mxGeometry>
        </mxCell>
        <mxCell id="jH4gpe4Tn965D2jjeDOP-215" value="Пользователя не существует в системе:&lt;br&gt;4.а. Система отображает информацию о том, что Пользователь с таким логином не найден.&lt;br&gt;4.b.  Система переходит на шаг 3 основного сценария.&lt;br&gt;&lt;br&gt;Неверный пароль:&lt;br&gt;5.a. Система отображает, что пароль неверный.&lt;br&gt;5.b. Система переходит на шаг 3 основного сценария." style="shape=partialRectangle;html=1;whiteSpace=wrap;connectable=0;top=0;left=0;bottom=1;right=0;overflow=hidden;fontSize=16;align=left;verticalAlign=top;" parent="jH4gpe4Tn965D2jjeDOP-213" vertex="1">
          <mxGeometry x="290" width="580" height="160" as="geometry">
            <mxRectangle width="580" height="160" as="alternateBounds" />
          </mxGeometry>
        </mxCell>
        <mxCell id="jH4gpe4Tn965D2jjeDOP-216" style="shape=tableRow;horizontal=0;startSize=0;swimlaneHead=0;swimlaneBody=0;top=0;left=0;bottom=0;right=0;collapsible=0;dropTarget=0;points=[[0,0.5],[1,0.5]];portConstraint=eastwest;fontSize=29;" parent="jH4gpe4Tn965D2jjeDOP-188" vertex="1">
          <mxGeometry y="630" width="870" height="40" as="geometry" />
        </mxCell>
        <mxCell id="jH4gpe4Tn965D2jjeDOP-217" value="Изменения в технологии и данных" style="shape=partialRectangle;html=1;whiteSpace=wrap;connectable=0;fillColor=#f5f5f5;top=0;left=0;bottom=0;right=1;overflow=hidden;fontSize=16;fontColor=#333333;strokeColor=#000000;strokeWidth=1;perimeterSpacing=1;align=left;fontStyle=1;verticalAlign=top;" parent="jH4gpe4Tn965D2jjeDOP-216" vertex="1">
          <mxGeometry width="290" height="40" as="geometry">
            <mxRectangle width="290" height="40" as="alternateBounds" />
          </mxGeometry>
        </mxCell>
        <mxCell id="jH4gpe4Tn965D2jjeDOP-218" value="Использовать хранения данных пользователя&amp;nbsp;" style="shape=partialRectangle;html=1;whiteSpace=wrap;connectable=0;top=0;left=0;bottom=0;right=0;overflow=hidden;fontSize=16;align=left;verticalAlign=top;" parent="jH4gpe4Tn965D2jjeDOP-216" vertex="1">
          <mxGeometry x="290" width="580" height="40" as="geometry">
            <mxRectangle width="580" height="40" as="alternateBounds" />
          </mxGeometry>
        </mxCell>
        <mxCell id="jH4gpe4Tn965D2jjeDOP-219" value="" style="shape=table;html=1;whiteSpace=wrap;startSize=0;container=1;collapsible=0;childLayout=tableLayout;fontSize=29;columnLines=1;rowLines=1;swimlaneLine=1;swimlaneFillColor=none;strokeWidth=2;strokeColor=#666666;shadow=1;" parent="jH4gpe4Tn965D2jjeDOP-1" vertex="1">
          <mxGeometry x="4548" y="-260" width="870" height="390.0000000000009" as="geometry" />
        </mxCell>
        <mxCell id="jH4gpe4Tn965D2jjeDOP-220" value="" style="shape=tableRow;horizontal=0;startSize=0;swimlaneHead=0;swimlaneBody=0;top=0;left=0;bottom=0;right=0;collapsible=0;dropTarget=0;fillColor=none;points=[[0,0.5],[1,0.5]];portConstraint=eastwest;fontSize=29;" parent="jH4gpe4Tn965D2jjeDOP-219" vertex="1">
          <mxGeometry width="870" height="40" as="geometry" />
        </mxCell>
        <mxCell id="jH4gpe4Tn965D2jjeDOP-221" value="&lt;font style=&quot;font-size: 18px;&quot;&gt;Уникальный код и название&lt;/font&gt;" style="shape=partialRectangle;html=1;whiteSpace=wrap;connectable=0;fillColor=#f5f5f5;top=0;left=0;bottom=1;right=0;overflow=hidden;fontSize=29;align=left;fontStyle=1;fontColor=#333333;strokeColor=#666666;labelBorderColor=none;" parent="jH4gpe4Tn965D2jjeDOP-220" vertex="1">
          <mxGeometry width="290" height="40" as="geometry">
            <mxRectangle width="290" height="40" as="alternateBounds" />
          </mxGeometry>
        </mxCell>
        <mxCell id="jH4gpe4Tn965D2jjeDOP-222" value="&lt;font style=&quot;font-size: 18px;&quot;&gt;ВИ-7: Посмотреть профиль в Личном кабинете&lt;/font&gt;" style="shape=partialRectangle;html=1;whiteSpace=wrap;connectable=0;fillColor=#f5f5f5;top=0;left=0;bottom=1;right=0;overflow=hidden;fontSize=29;fontStyle=1;align=left;fontColor=#333333;strokeColor=#666666;" parent="jH4gpe4Tn965D2jjeDOP-220" vertex="1">
          <mxGeometry x="290" width="580" height="40" as="geometry">
            <mxRectangle width="580" height="40" as="alternateBounds" />
          </mxGeometry>
        </mxCell>
        <mxCell id="jH4gpe4Tn965D2jjeDOP-223" value="" style="shape=tableRow;horizontal=0;startSize=0;swimlaneHead=0;swimlaneBody=0;top=0;left=0;bottom=0;right=0;collapsible=0;dropTarget=0;fillColor=none;points=[[0,0.5],[1,0.5]];portConstraint=eastwest;fontSize=29;" parent="jH4gpe4Tn965D2jjeDOP-219" vertex="1">
          <mxGeometry y="40" width="870" height="40" as="geometry" />
        </mxCell>
        <mxCell id="jH4gpe4Tn965D2jjeDOP-224" value="&lt;font style=&quot;font-size: 16px;&quot;&gt;Контекст использования&lt;/font&gt;" style="shape=partialRectangle;html=1;whiteSpace=wrap;connectable=0;fillColor=#f5f5f5;top=0;left=0;bottom=1;right=1;overflow=hidden;fontSize=16;fontColor=#333333;strokeColor=#666666;perimeterSpacing=4;align=left;fontStyle=1;verticalAlign=top;" parent="jH4gpe4Tn965D2jjeDOP-223" vertex="1">
          <mxGeometry width="290" height="40" as="geometry">
            <mxRectangle width="290" height="40" as="alternateBounds" />
          </mxGeometry>
        </mxCell>
        <mxCell id="jH4gpe4Tn965D2jjeDOP-225" value="Просмотр данных о Пользователе в Личном кабинете" style="shape=partialRectangle;html=1;whiteSpace=wrap;connectable=0;top=0;left=0;bottom=1;right=0;overflow=hidden;fontSize=16;align=left;strokeColor=#666666;verticalAlign=top;" parent="jH4gpe4Tn965D2jjeDOP-223" vertex="1">
          <mxGeometry x="290" width="580" height="40" as="geometry">
            <mxRectangle width="580" height="40" as="alternateBounds" />
          </mxGeometry>
        </mxCell>
        <mxCell id="jH4gpe4Tn965D2jjeDOP-226" value="" style="shape=tableRow;horizontal=0;startSize=0;swimlaneHead=0;swimlaneBody=0;top=0;left=0;bottom=0;right=0;collapsible=0;dropTarget=0;fillColor=none;points=[[0,0.5],[1,0.5]];portConstraint=eastwest;fontSize=29;" parent="jH4gpe4Tn965D2jjeDOP-219" vertex="1">
          <mxGeometry y="80" width="870" height="40" as="geometry" />
        </mxCell>
        <mxCell id="jH4gpe4Tn965D2jjeDOP-227" value="&lt;font style=&quot;font-size: 16px;&quot;&gt;Область действия&lt;/font&gt;" style="shape=partialRectangle;html=1;whiteSpace=wrap;connectable=0;fillColor=#f5f5f5;top=0;left=0;bottom=1;right=1;overflow=hidden;fontSize=16;fontColor=#333333;strokeColor=#666666;align=left;fontStyle=1;verticalAlign=top;" parent="jH4gpe4Tn965D2jjeDOP-226" vertex="1">
          <mxGeometry width="290" height="40" as="geometry">
            <mxRectangle width="290" height="40" as="alternateBounds" />
          </mxGeometry>
        </mxCell>
        <mxCell id="jH4gpe4Tn965D2jjeDOP-228" value="Веб-приложение Накарабине" style="shape=partialRectangle;html=1;whiteSpace=wrap;connectable=0;top=0;left=0;bottom=1;right=0;overflow=hidden;fontSize=16;align=left;strokeColor=#666666;verticalAlign=top;" parent="jH4gpe4Tn965D2jjeDOP-226" vertex="1">
          <mxGeometry x="290" width="580" height="40" as="geometry">
            <mxRectangle width="580" height="40" as="alternateBounds" />
          </mxGeometry>
        </mxCell>
        <mxCell id="jH4gpe4Tn965D2jjeDOP-229" style="shape=tableRow;horizontal=0;startSize=0;swimlaneHead=0;swimlaneBody=0;top=0;left=0;bottom=0;right=0;collapsible=0;dropTarget=0;fillColor=none;points=[[0,0.5],[1,0.5]];portConstraint=eastwest;fontSize=29;" parent="jH4gpe4Tn965D2jjeDOP-219" vertex="1">
          <mxGeometry y="120" width="870" height="40" as="geometry" />
        </mxCell>
        <mxCell id="jH4gpe4Tn965D2jjeDOP-230" value="Основное действующее лицо" style="shape=partialRectangle;html=1;whiteSpace=wrap;connectable=0;fillColor=#f5f5f5;top=0;left=0;bottom=1;right=1;overflow=hidden;fontSize=16;fontColor=#333333;strokeColor=#666666;align=left;fontStyle=1;verticalAlign=top;" parent="jH4gpe4Tn965D2jjeDOP-229" vertex="1">
          <mxGeometry width="290" height="40" as="geometry">
            <mxRectangle width="290" height="40" as="alternateBounds" />
          </mxGeometry>
        </mxCell>
        <mxCell id="jH4gpe4Tn965D2jjeDOP-231" value="Пользователь" style="shape=partialRectangle;html=1;whiteSpace=wrap;connectable=0;top=0;left=0;bottom=1;right=0;overflow=hidden;fontSize=16;align=left;strokeColor=#666666;verticalAlign=top;" parent="jH4gpe4Tn965D2jjeDOP-229" vertex="1">
          <mxGeometry x="290" width="580" height="40" as="geometry">
            <mxRectangle width="580" height="40" as="alternateBounds" />
          </mxGeometry>
        </mxCell>
        <mxCell id="jH4gpe4Tn965D2jjeDOP-232" style="shape=tableRow;horizontal=0;startSize=0;swimlaneHead=0;swimlaneBody=0;top=0;left=0;bottom=0;right=0;collapsible=0;dropTarget=0;fillColor=none;points=[[0,0.5],[1,0.5]];portConstraint=eastwest;fontSize=29;" parent="jH4gpe4Tn965D2jjeDOP-219" vertex="1">
          <mxGeometry y="160" width="870" height="40" as="geometry" />
        </mxCell>
        <mxCell id="jH4gpe4Tn965D2jjeDOP-233" value="Предусловие" style="shape=partialRectangle;html=1;whiteSpace=wrap;connectable=0;fillColor=#f5f5f5;top=0;left=0;bottom=1;right=1;overflow=hidden;fontSize=16;fontColor=#333333;strokeColor=#666666;align=left;fontStyle=1;verticalAlign=top;" parent="jH4gpe4Tn965D2jjeDOP-232" vertex="1">
          <mxGeometry width="290" height="40" as="geometry">
            <mxRectangle width="290" height="40" as="alternateBounds" />
          </mxGeometry>
        </mxCell>
        <mxCell id="jH4gpe4Tn965D2jjeDOP-234" value="Успешно выполнен сценарий «Авторизоваться в Личном кабинете»" style="shape=partialRectangle;html=1;whiteSpace=wrap;connectable=0;top=0;left=0;bottom=1;right=0;overflow=hidden;fontSize=16;align=left;strokeColor=#666666;verticalAlign=top;" parent="jH4gpe4Tn965D2jjeDOP-232" vertex="1">
          <mxGeometry x="290" width="580" height="40" as="geometry">
            <mxRectangle width="580" height="40" as="alternateBounds" />
          </mxGeometry>
        </mxCell>
        <mxCell id="jH4gpe4Tn965D2jjeDOP-235" style="shape=tableRow;horizontal=0;startSize=0;swimlaneHead=0;swimlaneBody=0;top=0;left=0;bottom=0;right=0;collapsible=0;dropTarget=0;fillColor=none;points=[[0,0.5],[1,0.5]];portConstraint=eastwest;fontSize=29;" parent="jH4gpe4Tn965D2jjeDOP-219" vertex="1">
          <mxGeometry y="200" width="870" height="40" as="geometry" />
        </mxCell>
        <mxCell id="jH4gpe4Tn965D2jjeDOP-236" value="Гарантии успеха" style="shape=partialRectangle;html=1;whiteSpace=wrap;connectable=0;fillColor=#f5f5f5;top=0;left=0;bottom=1;right=1;overflow=hidden;fontSize=16;fontColor=#333333;strokeColor=#666666;align=left;fontStyle=1;verticalAlign=top;" parent="jH4gpe4Tn965D2jjeDOP-235" vertex="1">
          <mxGeometry width="290" height="40" as="geometry">
            <mxRectangle width="290" height="40" as="alternateBounds" />
          </mxGeometry>
        </mxCell>
        <mxCell id="jH4gpe4Tn965D2jjeDOP-237" value="Профиль Пользователя просмотрен" style="shape=partialRectangle;html=1;whiteSpace=wrap;connectable=0;top=0;left=0;bottom=1;right=0;overflow=hidden;fontSize=16;align=left;strokeColor=#666666;verticalAlign=top;" parent="jH4gpe4Tn965D2jjeDOP-235" vertex="1">
          <mxGeometry x="290" width="580" height="40" as="geometry">
            <mxRectangle width="580" height="40" as="alternateBounds" />
          </mxGeometry>
        </mxCell>
        <mxCell id="jH4gpe4Tn965D2jjeDOP-238" style="shape=tableRow;horizontal=0;startSize=0;swimlaneHead=0;swimlaneBody=0;top=0;left=0;bottom=0;right=0;collapsible=0;dropTarget=0;fillColor=none;points=[[0,0.5],[1,0.5]];portConstraint=eastwest;fontSize=29;" parent="jH4gpe4Tn965D2jjeDOP-219" vertex="1">
          <mxGeometry y="240" width="870" height="40" as="geometry" />
        </mxCell>
        <mxCell id="jH4gpe4Tn965D2jjeDOP-239" value="Триггер" style="shape=partialRectangle;html=1;whiteSpace=wrap;connectable=0;fillColor=#f5f5f5;top=0;left=0;bottom=1;right=1;overflow=hidden;fontSize=16;fontColor=#333333;strokeColor=#666666;perimeterSpacing=1;align=left;fontStyle=1;verticalAlign=top;" parent="jH4gpe4Tn965D2jjeDOP-238" vertex="1">
          <mxGeometry width="290" height="40" as="geometry">
            <mxRectangle width="290" height="40" as="alternateBounds" />
          </mxGeometry>
        </mxCell>
        <mxCell id="jH4gpe4Tn965D2jjeDOP-240" value="Пользователь хочет посмотреть свой профиль" style="shape=partialRectangle;html=1;whiteSpace=wrap;connectable=0;top=0;left=0;bottom=1;right=0;overflow=hidden;fontSize=16;align=left;strokeColor=#666666;verticalAlign=top;" parent="jH4gpe4Tn965D2jjeDOP-238" vertex="1">
          <mxGeometry x="290" width="580" height="40" as="geometry">
            <mxRectangle width="580" height="40" as="alternateBounds" />
          </mxGeometry>
        </mxCell>
        <mxCell id="jH4gpe4Tn965D2jjeDOP-241" style="shape=tableRow;horizontal=0;startSize=0;swimlaneHead=0;swimlaneBody=0;top=0;left=0;bottom=0;right=0;collapsible=0;dropTarget=0;fillColor=none;points=[[0,0.5],[1,0.5]];portConstraint=eastwest;fontSize=29;" parent="jH4gpe4Tn965D2jjeDOP-219" vertex="1">
          <mxGeometry y="280" width="870" height="70" as="geometry" />
        </mxCell>
        <mxCell id="jH4gpe4Tn965D2jjeDOP-242" value="Базовый сценарий" style="shape=partialRectangle;html=1;whiteSpace=wrap;connectable=0;fillColor=#f5f5f5;top=0;left=0;bottom=1;right=1;overflow=hidden;fontSize=16;fontColor=#333333;strokeColor=#666666;perimeterSpacing=1;align=left;fontStyle=1;verticalAlign=top;" parent="jH4gpe4Tn965D2jjeDOP-241" vertex="1">
          <mxGeometry width="290" height="70" as="geometry">
            <mxRectangle width="290" height="70" as="alternateBounds" />
          </mxGeometry>
        </mxCell>
        <mxCell id="jH4gpe4Tn965D2jjeDOP-243" value="Просмотр профиля&lt;br&gt;1. Пользователь просматривает информацию своего профиля в Личном кабинете" style="shape=partialRectangle;html=1;whiteSpace=wrap;connectable=0;top=0;left=0;bottom=1;right=0;overflow=hidden;fontSize=16;align=left;strokeColor=#666666;verticalAlign=top;" parent="jH4gpe4Tn965D2jjeDOP-241" vertex="1">
          <mxGeometry x="290" width="580" height="70" as="geometry">
            <mxRectangle width="580" height="70" as="alternateBounds" />
          </mxGeometry>
        </mxCell>
        <mxCell id="jH4gpe4Tn965D2jjeDOP-244" style="shape=tableRow;horizontal=0;startSize=0;swimlaneHead=0;swimlaneBody=0;top=0;left=0;bottom=0;right=0;collapsible=0;dropTarget=0;points=[[0,0.5],[1,0.5]];portConstraint=eastwest;fontSize=29;" parent="jH4gpe4Tn965D2jjeDOP-219" vertex="1">
          <mxGeometry y="350" width="870" height="40" as="geometry" />
        </mxCell>
        <mxCell id="jH4gpe4Tn965D2jjeDOP-245" value="Изменения в технологии и данных" style="shape=partialRectangle;html=1;whiteSpace=wrap;connectable=0;fillColor=#f5f5f5;top=0;left=0;bottom=0;right=1;overflow=hidden;fontSize=16;fontColor=#333333;strokeColor=#666666;strokeWidth=1;perimeterSpacing=1;align=left;fontStyle=1;verticalAlign=top;" parent="jH4gpe4Tn965D2jjeDOP-244" vertex="1">
          <mxGeometry width="290" height="40" as="geometry">
            <mxRectangle width="290" height="40" as="alternateBounds" />
          </mxGeometry>
        </mxCell>
        <mxCell id="jH4gpe4Tn965D2jjeDOP-246" value="Использовать хранения данных пользователя&amp;nbsp;" style="shape=partialRectangle;html=1;whiteSpace=wrap;connectable=0;top=0;left=0;bottom=0;right=0;overflow=hidden;fontSize=16;align=left;verticalAlign=top;" parent="jH4gpe4Tn965D2jjeDOP-244" vertex="1">
          <mxGeometry x="290" width="580" height="40" as="geometry">
            <mxRectangle width="580" height="40" as="alternateBounds" />
          </mxGeometry>
        </mxCell>
        <mxCell id="jH4gpe4Tn965D2jjeDOP-247" value="" style="shape=table;html=1;whiteSpace=wrap;startSize=0;container=1;collapsible=0;childLayout=tableLayout;fontSize=29;columnLines=1;rowLines=1;swimlaneLine=1;swimlaneFillColor=none;strokeColor=#666666;strokeWidth=2;shadow=1;" parent="jH4gpe4Tn965D2jjeDOP-1" vertex="1">
          <mxGeometry x="4548" y="155" width="870" height="480.0000000000009" as="geometry" />
        </mxCell>
        <mxCell id="jH4gpe4Tn965D2jjeDOP-248" value="" style="shape=tableRow;horizontal=0;startSize=0;swimlaneHead=0;swimlaneBody=0;top=0;left=0;bottom=0;right=0;collapsible=0;dropTarget=0;fillColor=none;points=[[0,0.5],[1,0.5]];portConstraint=eastwest;fontSize=29;" parent="jH4gpe4Tn965D2jjeDOP-247" vertex="1">
          <mxGeometry width="870" height="40" as="geometry" />
        </mxCell>
        <mxCell id="jH4gpe4Tn965D2jjeDOP-249" value="&lt;font style=&quot;font-size: 18px;&quot;&gt;Уникальный код и название&lt;/font&gt;" style="shape=partialRectangle;html=1;whiteSpace=wrap;connectable=0;fillColor=#f5f5f5;top=0;left=0;bottom=1;right=1;overflow=hidden;fontSize=29;align=left;fontStyle=1;fontColor=#333333;strokeColor=#666666;labelBorderColor=none;" parent="jH4gpe4Tn965D2jjeDOP-248" vertex="1">
          <mxGeometry width="290" height="40" as="geometry">
            <mxRectangle width="290" height="40" as="alternateBounds" />
          </mxGeometry>
        </mxCell>
        <mxCell id="jH4gpe4Tn965D2jjeDOP-250" value="&lt;font style=&quot;font-size: 18px;&quot;&gt;ВИ-8: Отредактировать профиль в Личном&amp;nbsp;&lt;/font&gt;" style="shape=partialRectangle;html=1;whiteSpace=wrap;connectable=0;fillColor=#f5f5f5;top=0;left=0;bottom=1;right=0;overflow=hidden;fontSize=29;fontStyle=1;align=left;fontColor=#333333;strokeColor=#666666;" parent="jH4gpe4Tn965D2jjeDOP-248" vertex="1">
          <mxGeometry x="290" width="580" height="40" as="geometry">
            <mxRectangle width="580" height="40" as="alternateBounds" />
          </mxGeometry>
        </mxCell>
        <mxCell id="jH4gpe4Tn965D2jjeDOP-251" value="" style="shape=tableRow;horizontal=0;startSize=0;swimlaneHead=0;swimlaneBody=0;top=0;left=0;bottom=0;right=0;collapsible=0;dropTarget=0;fillColor=none;points=[[0,0.5],[1,0.5]];portConstraint=eastwest;fontSize=29;" parent="jH4gpe4Tn965D2jjeDOP-247" vertex="1">
          <mxGeometry y="40" width="870" height="40" as="geometry" />
        </mxCell>
        <mxCell id="jH4gpe4Tn965D2jjeDOP-252" value="&lt;font style=&quot;font-size: 16px;&quot;&gt;Контекст использования&lt;/font&gt;" style="shape=partialRectangle;html=1;whiteSpace=wrap;connectable=0;fillColor=#f5f5f5;top=0;left=0;bottom=1;right=1;overflow=hidden;fontSize=16;fontColor=#333333;strokeColor=#666666;perimeterSpacing=4;align=left;fontStyle=1;verticalAlign=top;" parent="jH4gpe4Tn965D2jjeDOP-251" vertex="1">
          <mxGeometry width="290" height="40" as="geometry">
            <mxRectangle width="290" height="40" as="alternateBounds" />
          </mxGeometry>
        </mxCell>
        <mxCell id="jH4gpe4Tn965D2jjeDOP-253" value="Изменение данных Пользователя в Личном кабинете" style="shape=partialRectangle;html=1;whiteSpace=wrap;connectable=0;top=0;left=0;bottom=1;right=0;overflow=hidden;fontSize=16;align=left;strokeColor=#666666;verticalAlign=top;" parent="jH4gpe4Tn965D2jjeDOP-251" vertex="1">
          <mxGeometry x="290" width="580" height="40" as="geometry">
            <mxRectangle width="580" height="40" as="alternateBounds" />
          </mxGeometry>
        </mxCell>
        <mxCell id="jH4gpe4Tn965D2jjeDOP-254" value="" style="shape=tableRow;horizontal=0;startSize=0;swimlaneHead=0;swimlaneBody=0;top=0;left=0;bottom=0;right=0;collapsible=0;dropTarget=0;fillColor=none;points=[[0,0.5],[1,0.5]];portConstraint=eastwest;fontSize=29;" parent="jH4gpe4Tn965D2jjeDOP-247" vertex="1">
          <mxGeometry y="80" width="870" height="40" as="geometry" />
        </mxCell>
        <mxCell id="jH4gpe4Tn965D2jjeDOP-255" value="&lt;font style=&quot;font-size: 16px;&quot;&gt;Область действия&lt;/font&gt;" style="shape=partialRectangle;html=1;whiteSpace=wrap;connectable=0;fillColor=#f5f5f5;top=0;left=0;bottom=1;right=1;overflow=hidden;fontSize=16;fontColor=#333333;strokeColor=#666666;align=left;fontStyle=1;verticalAlign=top;" parent="jH4gpe4Tn965D2jjeDOP-254" vertex="1">
          <mxGeometry width="290" height="40" as="geometry">
            <mxRectangle width="290" height="40" as="alternateBounds" />
          </mxGeometry>
        </mxCell>
        <mxCell id="jH4gpe4Tn965D2jjeDOP-256" value="Веб-приложение Накарабине" style="shape=partialRectangle;html=1;whiteSpace=wrap;connectable=0;top=0;left=0;bottom=1;right=0;overflow=hidden;fontSize=16;align=left;strokeColor=#666666;verticalAlign=top;" parent="jH4gpe4Tn965D2jjeDOP-254" vertex="1">
          <mxGeometry x="290" width="580" height="40" as="geometry">
            <mxRectangle width="580" height="40" as="alternateBounds" />
          </mxGeometry>
        </mxCell>
        <mxCell id="jH4gpe4Tn965D2jjeDOP-257" style="shape=tableRow;horizontal=0;startSize=0;swimlaneHead=0;swimlaneBody=0;top=0;left=0;bottom=0;right=0;collapsible=0;dropTarget=0;fillColor=none;points=[[0,0.5],[1,0.5]];portConstraint=eastwest;fontSize=29;" parent="jH4gpe4Tn965D2jjeDOP-247" vertex="1">
          <mxGeometry y="120" width="870" height="40" as="geometry" />
        </mxCell>
        <mxCell id="jH4gpe4Tn965D2jjeDOP-258" value="Основное действующее лицо" style="shape=partialRectangle;html=1;whiteSpace=wrap;connectable=0;fillColor=#f5f5f5;top=0;left=0;bottom=1;right=1;overflow=hidden;fontSize=16;fontColor=#333333;strokeColor=#666666;align=left;fontStyle=1;verticalAlign=top;" parent="jH4gpe4Tn965D2jjeDOP-257" vertex="1">
          <mxGeometry width="290" height="40" as="geometry">
            <mxRectangle width="290" height="40" as="alternateBounds" />
          </mxGeometry>
        </mxCell>
        <mxCell id="jH4gpe4Tn965D2jjeDOP-259" value="Пользователь" style="shape=partialRectangle;html=1;whiteSpace=wrap;connectable=0;top=0;left=0;bottom=1;right=0;overflow=hidden;fontSize=16;align=left;strokeColor=#666666;verticalAlign=top;" parent="jH4gpe4Tn965D2jjeDOP-257" vertex="1">
          <mxGeometry x="290" width="580" height="40" as="geometry">
            <mxRectangle width="580" height="40" as="alternateBounds" />
          </mxGeometry>
        </mxCell>
        <mxCell id="jH4gpe4Tn965D2jjeDOP-260" style="shape=tableRow;horizontal=0;startSize=0;swimlaneHead=0;swimlaneBody=0;top=0;left=0;bottom=0;right=0;collapsible=0;dropTarget=0;fillColor=none;points=[[0,0.5],[1,0.5]];portConstraint=eastwest;fontSize=29;" parent="jH4gpe4Tn965D2jjeDOP-247" vertex="1">
          <mxGeometry y="160" width="870" height="40" as="geometry" />
        </mxCell>
        <mxCell id="jH4gpe4Tn965D2jjeDOP-261" value="Предусловие" style="shape=partialRectangle;html=1;whiteSpace=wrap;connectable=0;fillColor=#f5f5f5;top=0;left=0;bottom=1;right=1;overflow=hidden;fontSize=16;fontColor=#333333;strokeColor=#666666;align=left;fontStyle=1;verticalAlign=top;" parent="jH4gpe4Tn965D2jjeDOP-260" vertex="1">
          <mxGeometry width="290" height="40" as="geometry">
            <mxRectangle width="290" height="40" as="alternateBounds" />
          </mxGeometry>
        </mxCell>
        <mxCell id="jH4gpe4Tn965D2jjeDOP-262" value="Успешно выполнен сценарий «Авторизоваться в Личном кабинете»" style="shape=partialRectangle;html=1;whiteSpace=wrap;connectable=0;top=0;left=0;bottom=1;right=0;overflow=hidden;fontSize=16;align=left;strokeColor=#666666;verticalAlign=top;" parent="jH4gpe4Tn965D2jjeDOP-260" vertex="1">
          <mxGeometry x="290" width="580" height="40" as="geometry">
            <mxRectangle width="580" height="40" as="alternateBounds" />
          </mxGeometry>
        </mxCell>
        <mxCell id="jH4gpe4Tn965D2jjeDOP-263" style="shape=tableRow;horizontal=0;startSize=0;swimlaneHead=0;swimlaneBody=0;top=0;left=0;bottom=0;right=0;collapsible=0;dropTarget=0;fillColor=none;points=[[0,0.5],[1,0.5]];portConstraint=eastwest;fontSize=29;" parent="jH4gpe4Tn965D2jjeDOP-247" vertex="1">
          <mxGeometry y="200" width="870" height="50" as="geometry" />
        </mxCell>
        <mxCell id="jH4gpe4Tn965D2jjeDOP-264" value="Гарантии успеха" style="shape=partialRectangle;html=1;whiteSpace=wrap;connectable=0;fillColor=#f5f5f5;top=0;left=0;bottom=1;right=1;overflow=hidden;fontSize=16;fontColor=#333333;strokeColor=#666666;align=left;fontStyle=1;verticalAlign=top;" parent="jH4gpe4Tn965D2jjeDOP-263" vertex="1">
          <mxGeometry width="290" height="50" as="geometry">
            <mxRectangle width="290" height="50" as="alternateBounds" />
          </mxGeometry>
        </mxCell>
        <mxCell id="jH4gpe4Tn965D2jjeDOP-265" value="— Профиль изменен&lt;br&gt;— Изменения не сохранены" style="shape=partialRectangle;html=1;whiteSpace=wrap;connectable=0;top=0;left=0;bottom=1;right=0;overflow=hidden;fontSize=16;align=left;strokeColor=#666666;verticalAlign=top;" parent="jH4gpe4Tn965D2jjeDOP-263" vertex="1">
          <mxGeometry x="290" width="580" height="50" as="geometry">
            <mxRectangle width="580" height="50" as="alternateBounds" />
          </mxGeometry>
        </mxCell>
        <mxCell id="jH4gpe4Tn965D2jjeDOP-266" style="shape=tableRow;horizontal=0;startSize=0;swimlaneHead=0;swimlaneBody=0;top=0;left=0;bottom=0;right=0;collapsible=0;dropTarget=0;fillColor=none;points=[[0,0.5],[1,0.5]];portConstraint=eastwest;fontSize=29;" parent="jH4gpe4Tn965D2jjeDOP-247" vertex="1">
          <mxGeometry y="250" width="870" height="40" as="geometry" />
        </mxCell>
        <mxCell id="jH4gpe4Tn965D2jjeDOP-267" value="Триггер" style="shape=partialRectangle;html=1;whiteSpace=wrap;connectable=0;fillColor=#f5f5f5;top=0;left=0;bottom=1;right=0;overflow=hidden;fontSize=16;fontColor=#333333;strokeColor=#666666;perimeterSpacing=1;align=left;fontStyle=1" parent="jH4gpe4Tn965D2jjeDOP-266" vertex="1">
          <mxGeometry width="290" height="40" as="geometry">
            <mxRectangle width="290" height="40" as="alternateBounds" />
          </mxGeometry>
        </mxCell>
        <mxCell id="jH4gpe4Tn965D2jjeDOP-268" value="Пользователь хочет изменить свои текущие данные в Личном кабинете" style="shape=partialRectangle;html=1;whiteSpace=wrap;connectable=0;top=0;left=0;bottom=1;right=0;overflow=hidden;fontSize=16;align=left;verticalAlign=top;" parent="jH4gpe4Tn965D2jjeDOP-266" vertex="1">
          <mxGeometry x="290" width="580" height="40" as="geometry">
            <mxRectangle width="580" height="40" as="alternateBounds" />
          </mxGeometry>
        </mxCell>
        <mxCell id="jH4gpe4Tn965D2jjeDOP-269" style="shape=tableRow;horizontal=0;startSize=0;swimlaneHead=0;swimlaneBody=0;top=0;left=0;bottom=0;right=0;collapsible=0;dropTarget=0;fillColor=none;points=[[0,0.5],[1,0.5]];portConstraint=eastwest;fontSize=29;" parent="jH4gpe4Tn965D2jjeDOP-247" vertex="1">
          <mxGeometry y="290" width="870" height="150" as="geometry" />
        </mxCell>
        <mxCell id="jH4gpe4Tn965D2jjeDOP-270" value="Базовый сценарий" style="shape=partialRectangle;html=1;whiteSpace=wrap;connectable=0;fillColor=#f5f5f5;top=0;left=0;bottom=1;right=1;overflow=hidden;fontSize=16;fontColor=#333333;strokeColor=#666666;perimeterSpacing=1;align=left;fontStyle=1;verticalAlign=top;" parent="jH4gpe4Tn965D2jjeDOP-269" vertex="1">
          <mxGeometry width="290" height="150" as="geometry">
            <mxRectangle width="290" height="150" as="alternateBounds" />
          </mxGeometry>
        </mxCell>
        <mxCell id="jH4gpe4Tn965D2jjeDOP-271" value="Профиль изменен:&lt;br&gt;1. Пользователь просматривает свои данные в Личном кабинете.&lt;br&gt;2. Пользователь выбирает действие изменения данных.&lt;br&gt;3. Пользователь вносит изменения в данные: ФИО, пароль, телефон, e-mail.&lt;br&gt;4. Пользователь выбирает действие сохранения изменений.&lt;br&gt;5. Система сохраняет внесенные изменения." style="shape=partialRectangle;html=1;whiteSpace=wrap;connectable=0;top=0;left=0;bottom=1;right=0;overflow=hidden;fontSize=16;align=left;strokeColor=#666666;verticalAlign=top;" parent="jH4gpe4Tn965D2jjeDOP-269" vertex="1">
          <mxGeometry x="290" width="580" height="150" as="geometry">
            <mxRectangle width="580" height="150" as="alternateBounds" />
          </mxGeometry>
        </mxCell>
        <mxCell id="jH4gpe4Tn965D2jjeDOP-272" style="shape=tableRow;horizontal=0;startSize=0;swimlaneHead=0;swimlaneBody=0;top=0;left=0;bottom=0;right=0;collapsible=0;dropTarget=0;points=[[0,0.5],[1,0.5]];portConstraint=eastwest;fontSize=29;" parent="jH4gpe4Tn965D2jjeDOP-247" vertex="1">
          <mxGeometry y="440" width="870" height="40" as="geometry" />
        </mxCell>
        <mxCell id="jH4gpe4Tn965D2jjeDOP-273" value="Изменения в технологии и данных" style="shape=partialRectangle;html=1;whiteSpace=wrap;connectable=0;fillColor=#f5f5f5;top=0;left=0;bottom=0;right=1;overflow=hidden;fontSize=16;fontColor=#333333;strokeColor=#666666;strokeWidth=1;perimeterSpacing=1;align=left;fontStyle=1;verticalAlign=top;" parent="jH4gpe4Tn965D2jjeDOP-272" vertex="1">
          <mxGeometry width="290" height="40" as="geometry">
            <mxRectangle width="290" height="40" as="alternateBounds" />
          </mxGeometry>
        </mxCell>
        <mxCell id="jH4gpe4Tn965D2jjeDOP-274" value="Использовать хранения данных пользователя&amp;nbsp;" style="shape=partialRectangle;html=1;whiteSpace=wrap;connectable=0;top=0;left=0;bottom=0;right=0;overflow=hidden;fontSize=16;align=left;strokeColor=#666666;verticalAlign=top;" parent="jH4gpe4Tn965D2jjeDOP-272" vertex="1">
          <mxGeometry x="290" width="580" height="40" as="geometry">
            <mxRectangle width="580" height="40" as="alternateBounds" />
          </mxGeometry>
        </mxCell>
        <mxCell id="jH4gpe4Tn965D2jjeDOP-275" value="" style="shape=table;html=1;whiteSpace=wrap;startSize=0;container=1;collapsible=0;childLayout=tableLayout;fontSize=29;columnLines=1;rowLines=1;swimlaneLine=1;swimlaneFillColor=none;strokeColor=#666666;strokeWidth=2;" parent="jH4gpe4Tn965D2jjeDOP-1" vertex="1">
          <mxGeometry x="4548" y="670" width="870" height="480.0000000000009" as="geometry" />
        </mxCell>
        <mxCell id="jH4gpe4Tn965D2jjeDOP-276" value="" style="shape=tableRow;horizontal=0;startSize=0;swimlaneHead=0;swimlaneBody=0;top=0;left=0;bottom=0;right=0;collapsible=0;dropTarget=0;fillColor=none;points=[[0,0.5],[1,0.5]];portConstraint=eastwest;fontSize=29;" parent="jH4gpe4Tn965D2jjeDOP-275" vertex="1">
          <mxGeometry width="870" height="40" as="geometry" />
        </mxCell>
        <mxCell id="jH4gpe4Tn965D2jjeDOP-277" value="&lt;font style=&quot;font-size: 18px;&quot;&gt;Уникальный код и название&lt;/font&gt;" style="shape=partialRectangle;html=1;whiteSpace=wrap;connectable=0;fillColor=#f5f5f5;top=0;left=0;bottom=1;right=1;overflow=hidden;fontSize=29;align=left;fontStyle=1;fontColor=#333333;strokeColor=#666666;labelBorderColor=none;" parent="jH4gpe4Tn965D2jjeDOP-276" vertex="1">
          <mxGeometry width="290" height="40" as="geometry">
            <mxRectangle width="290" height="40" as="alternateBounds" />
          </mxGeometry>
        </mxCell>
        <mxCell id="jH4gpe4Tn965D2jjeDOP-278" value="&lt;font style=&quot;font-size: 18px;&quot;&gt;&lt;font style=&quot;font-size: 18px;&quot;&gt;ВИ-9:&amp;nbsp;&lt;/font&gt;&lt;span style=&quot;color: rgb(0, 0, 0); text-align: center;&quot;&gt;Посмотреть историю заказов&lt;/span&gt;&lt;/font&gt;" style="shape=partialRectangle;html=1;whiteSpace=wrap;connectable=0;fillColor=#f5f5f5;top=0;left=0;bottom=1;right=0;overflow=hidden;fontSize=29;fontStyle=1;align=left;fontColor=#333333;strokeColor=#666666;" parent="jH4gpe4Tn965D2jjeDOP-276" vertex="1">
          <mxGeometry x="290" width="580" height="40" as="geometry">
            <mxRectangle width="580" height="40" as="alternateBounds" />
          </mxGeometry>
        </mxCell>
        <mxCell id="jH4gpe4Tn965D2jjeDOP-279" value="" style="shape=tableRow;horizontal=0;startSize=0;swimlaneHead=0;swimlaneBody=0;top=0;left=0;bottom=0;right=0;collapsible=0;dropTarget=0;fillColor=none;points=[[0,0.5],[1,0.5]];portConstraint=eastwest;fontSize=29;" parent="jH4gpe4Tn965D2jjeDOP-275" vertex="1">
          <mxGeometry y="40" width="870" height="50" as="geometry" />
        </mxCell>
        <mxCell id="jH4gpe4Tn965D2jjeDOP-280" value="&lt;font style=&quot;font-size: 16px;&quot;&gt;Контекст использования&lt;/font&gt;" style="shape=partialRectangle;html=1;whiteSpace=wrap;connectable=0;fillColor=#f5f5f5;top=0;left=0;bottom=1;right=1;overflow=hidden;fontSize=16;fontColor=#333333;strokeColor=#666666;perimeterSpacing=4;align=left;fontStyle=1;verticalAlign=top;" parent="jH4gpe4Tn965D2jjeDOP-279" vertex="1">
          <mxGeometry width="290" height="50" as="geometry">
            <mxRectangle width="290" height="50" as="alternateBounds" />
          </mxGeometry>
        </mxCell>
        <mxCell id="jH4gpe4Tn965D2jjeDOP-281" value="Просмотр информации о заказах, которые сделал Пользователь за весь период&amp;nbsp;" style="shape=partialRectangle;html=1;whiteSpace=wrap;connectable=0;top=0;left=0;bottom=1;right=0;overflow=hidden;fontSize=16;align=left;strokeColor=#666666;verticalAlign=top;" parent="jH4gpe4Tn965D2jjeDOP-279" vertex="1">
          <mxGeometry x="290" width="580" height="50" as="geometry">
            <mxRectangle width="580" height="50" as="alternateBounds" />
          </mxGeometry>
        </mxCell>
        <mxCell id="jH4gpe4Tn965D2jjeDOP-282" value="" style="shape=tableRow;horizontal=0;startSize=0;swimlaneHead=0;swimlaneBody=0;top=0;left=0;bottom=0;right=0;collapsible=0;dropTarget=0;fillColor=none;points=[[0,0.5],[1,0.5]];portConstraint=eastwest;fontSize=29;" parent="jH4gpe4Tn965D2jjeDOP-275" vertex="1">
          <mxGeometry y="90" width="870" height="40" as="geometry" />
        </mxCell>
        <mxCell id="jH4gpe4Tn965D2jjeDOP-283" value="&lt;font style=&quot;font-size: 16px;&quot;&gt;Область действия&lt;/font&gt;" style="shape=partialRectangle;html=1;whiteSpace=wrap;connectable=0;fillColor=#f5f5f5;top=0;left=0;bottom=1;right=1;overflow=hidden;fontSize=16;fontColor=#333333;strokeColor=#666666;align=left;fontStyle=1;verticalAlign=top;" parent="jH4gpe4Tn965D2jjeDOP-282" vertex="1">
          <mxGeometry width="290" height="40" as="geometry">
            <mxRectangle width="290" height="40" as="alternateBounds" />
          </mxGeometry>
        </mxCell>
        <mxCell id="jH4gpe4Tn965D2jjeDOP-284" value="Веб-приложение Накарабине" style="shape=partialRectangle;html=1;whiteSpace=wrap;connectable=0;top=0;left=0;bottom=1;right=0;overflow=hidden;fontSize=16;align=left;strokeColor=#666666;verticalAlign=top;" parent="jH4gpe4Tn965D2jjeDOP-282" vertex="1">
          <mxGeometry x="290" width="580" height="40" as="geometry">
            <mxRectangle width="580" height="40" as="alternateBounds" />
          </mxGeometry>
        </mxCell>
        <mxCell id="jH4gpe4Tn965D2jjeDOP-285" style="shape=tableRow;horizontal=0;startSize=0;swimlaneHead=0;swimlaneBody=0;top=0;left=0;bottom=0;right=0;collapsible=0;dropTarget=0;fillColor=none;points=[[0,0.5],[1,0.5]];portConstraint=eastwest;fontSize=29;" parent="jH4gpe4Tn965D2jjeDOP-275" vertex="1">
          <mxGeometry y="130" width="870" height="40" as="geometry" />
        </mxCell>
        <mxCell id="jH4gpe4Tn965D2jjeDOP-286" value="Основное действующее лицо" style="shape=partialRectangle;html=1;whiteSpace=wrap;connectable=0;fillColor=#f5f5f5;top=0;left=0;bottom=1;right=1;overflow=hidden;fontSize=16;fontColor=#333333;strokeColor=#666666;align=left;fontStyle=1;verticalAlign=top;" parent="jH4gpe4Tn965D2jjeDOP-285" vertex="1">
          <mxGeometry width="290" height="40" as="geometry">
            <mxRectangle width="290" height="40" as="alternateBounds" />
          </mxGeometry>
        </mxCell>
        <mxCell id="jH4gpe4Tn965D2jjeDOP-287" value="Пользователь" style="shape=partialRectangle;html=1;whiteSpace=wrap;connectable=0;top=0;left=0;bottom=1;right=0;overflow=hidden;fontSize=16;align=left;strokeColor=#666666;verticalAlign=top;" parent="jH4gpe4Tn965D2jjeDOP-285" vertex="1">
          <mxGeometry x="290" width="580" height="40" as="geometry">
            <mxRectangle width="580" height="40" as="alternateBounds" />
          </mxGeometry>
        </mxCell>
        <mxCell id="jH4gpe4Tn965D2jjeDOP-288" style="shape=tableRow;horizontal=0;startSize=0;swimlaneHead=0;swimlaneBody=0;top=0;left=0;bottom=0;right=0;collapsible=0;dropTarget=0;fillColor=none;points=[[0,0.5],[1,0.5]];portConstraint=eastwest;fontSize=29;" parent="jH4gpe4Tn965D2jjeDOP-275" vertex="1">
          <mxGeometry y="170" width="870" height="40" as="geometry" />
        </mxCell>
        <mxCell id="jH4gpe4Tn965D2jjeDOP-289" value="Предусловие" style="shape=partialRectangle;html=1;whiteSpace=wrap;connectable=0;fillColor=#f5f5f5;top=0;left=0;bottom=1;right=1;overflow=hidden;fontSize=16;fontColor=#333333;strokeColor=#666666;align=left;fontStyle=1;verticalAlign=top;" parent="jH4gpe4Tn965D2jjeDOP-288" vertex="1">
          <mxGeometry width="290" height="40" as="geometry">
            <mxRectangle width="290" height="40" as="alternateBounds" />
          </mxGeometry>
        </mxCell>
        <mxCell id="jH4gpe4Tn965D2jjeDOP-290" value="Успешно выполнен сценарий «Авторизоваться в Личном кабинете»" style="shape=partialRectangle;html=1;whiteSpace=wrap;connectable=0;top=0;left=0;bottom=1;right=0;overflow=hidden;fontSize=16;align=left;strokeColor=#666666;verticalAlign=top;" parent="jH4gpe4Tn965D2jjeDOP-288" vertex="1">
          <mxGeometry x="290" width="580" height="40" as="geometry">
            <mxRectangle width="580" height="40" as="alternateBounds" />
          </mxGeometry>
        </mxCell>
        <mxCell id="jH4gpe4Tn965D2jjeDOP-291" style="shape=tableRow;horizontal=0;startSize=0;swimlaneHead=0;swimlaneBody=0;top=0;left=0;bottom=0;right=0;collapsible=0;dropTarget=0;fillColor=none;points=[[0,0.5],[1,0.5]];portConstraint=eastwest;fontSize=29;" parent="jH4gpe4Tn965D2jjeDOP-275" vertex="1">
          <mxGeometry y="210" width="870" height="40" as="geometry" />
        </mxCell>
        <mxCell id="jH4gpe4Tn965D2jjeDOP-292" value="Гарантии успеха" style="shape=partialRectangle;html=1;whiteSpace=wrap;connectable=0;fillColor=#f5f5f5;top=0;left=0;bottom=1;right=1;overflow=hidden;fontSize=16;fontColor=#333333;strokeColor=#666666;align=left;fontStyle=1;verticalAlign=top;" parent="jH4gpe4Tn965D2jjeDOP-291" vertex="1">
          <mxGeometry width="290" height="40" as="geometry">
            <mxRectangle width="290" height="40" as="alternateBounds" />
          </mxGeometry>
        </mxCell>
        <mxCell id="jH4gpe4Tn965D2jjeDOP-293" value="Просмотрена информация о сделанных заказах" style="shape=partialRectangle;html=1;whiteSpace=wrap;connectable=0;top=0;left=0;bottom=1;right=0;overflow=hidden;fontSize=16;align=left;strokeColor=#666666;verticalAlign=top;" parent="jH4gpe4Tn965D2jjeDOP-291" vertex="1">
          <mxGeometry x="290" width="580" height="40" as="geometry">
            <mxRectangle width="580" height="40" as="alternateBounds" />
          </mxGeometry>
        </mxCell>
        <mxCell id="jH4gpe4Tn965D2jjeDOP-294" style="shape=tableRow;horizontal=0;startSize=0;swimlaneHead=0;swimlaneBody=0;top=0;left=0;bottom=0;right=0;collapsible=0;dropTarget=0;fillColor=none;points=[[0,0.5],[1,0.5]];portConstraint=eastwest;fontSize=29;" parent="jH4gpe4Tn965D2jjeDOP-275" vertex="1">
          <mxGeometry y="250" width="870" height="50" as="geometry" />
        </mxCell>
        <mxCell id="jH4gpe4Tn965D2jjeDOP-295" value="Триггер" style="shape=partialRectangle;html=1;whiteSpace=wrap;connectable=0;fillColor=#f5f5f5;top=0;left=0;bottom=1;right=1;overflow=hidden;fontSize=16;fontColor=#333333;strokeColor=#666666;perimeterSpacing=1;align=left;fontStyle=1;verticalAlign=top;" parent="jH4gpe4Tn965D2jjeDOP-294" vertex="1">
          <mxGeometry width="290" height="50" as="geometry">
            <mxRectangle width="290" height="50" as="alternateBounds" />
          </mxGeometry>
        </mxCell>
        <mxCell id="jH4gpe4Tn965D2jjeDOP-296" value="Пользователь хочет посмотреть, какие заказы он уже сделал в веб-приложении Накарабине" style="shape=partialRectangle;html=1;whiteSpace=wrap;connectable=0;top=0;left=0;bottom=1;right=0;overflow=hidden;fontSize=16;align=left;strokeColor=#666666;verticalAlign=top;" parent="jH4gpe4Tn965D2jjeDOP-294" vertex="1">
          <mxGeometry x="290" width="580" height="50" as="geometry">
            <mxRectangle width="580" height="50" as="alternateBounds" />
          </mxGeometry>
        </mxCell>
        <mxCell id="jH4gpe4Tn965D2jjeDOP-297" style="shape=tableRow;horizontal=0;startSize=0;swimlaneHead=0;swimlaneBody=0;top=0;left=0;bottom=0;right=0;collapsible=0;dropTarget=0;fillColor=none;points=[[0,0.5],[1,0.5]];portConstraint=eastwest;fontSize=29;" parent="jH4gpe4Tn965D2jjeDOP-275" vertex="1">
          <mxGeometry y="300" width="870" height="140" as="geometry" />
        </mxCell>
        <mxCell id="jH4gpe4Tn965D2jjeDOP-298" value="Базовый сценарий" style="shape=partialRectangle;html=1;whiteSpace=wrap;connectable=0;fillColor=#f5f5f5;top=0;left=0;bottom=1;right=1;overflow=hidden;fontSize=16;fontColor=#333333;strokeColor=#666666;perimeterSpacing=1;align=left;fontStyle=1;verticalAlign=top;" parent="jH4gpe4Tn965D2jjeDOP-297" vertex="1">
          <mxGeometry width="290" height="140" as="geometry">
            <mxRectangle width="290" height="140" as="alternateBounds" />
          </mxGeometry>
        </mxCell>
        <mxCell id="jH4gpe4Tn965D2jjeDOP-299" value="Просмотр истории заказов:&lt;br&gt;1. Пользователь выбирает действие просмотреть историю заказов в Личном кабинете.&lt;br&gt;&lt;font style=&quot;font-size: 16px;&quot;&gt;2. Система выводит информацию обо всех сделанных заказах:&amp;nbsp;Номер заказа,&amp;nbsp;Статус,&amp;nbsp;Дату создания заказа,&amp;nbsp;Сумму, Данные о доставке (индекс, город,&amp;nbsp; адрес и дату), Данные об оплате (номер чека, способ оплаты, статус оплаты), Товары в заказе.&lt;/font&gt;" style="shape=partialRectangle;html=1;whiteSpace=wrap;connectable=0;top=0;left=0;bottom=1;right=0;overflow=hidden;fontSize=16;align=left;strokeColor=#666666;verticalAlign=top;" parent="jH4gpe4Tn965D2jjeDOP-297" vertex="1">
          <mxGeometry x="290" width="580" height="140" as="geometry">
            <mxRectangle width="580" height="140" as="alternateBounds" />
          </mxGeometry>
        </mxCell>
        <mxCell id="jH4gpe4Tn965D2jjeDOP-300" style="shape=tableRow;horizontal=0;startSize=0;swimlaneHead=0;swimlaneBody=0;top=0;left=0;bottom=0;right=0;collapsible=0;dropTarget=0;points=[[0,0.5],[1,0.5]];portConstraint=eastwest;fontSize=29;" parent="jH4gpe4Tn965D2jjeDOP-275" vertex="1">
          <mxGeometry y="440" width="870" height="40" as="geometry" />
        </mxCell>
        <mxCell id="jH4gpe4Tn965D2jjeDOP-301" value="Изменения в технологии и данных" style="shape=partialRectangle;html=1;whiteSpace=wrap;connectable=0;fillColor=#f5f5f5;top=0;left=0;bottom=0;right=1;overflow=hidden;fontSize=16;fontColor=#333333;strokeColor=#666666;strokeWidth=1;perimeterSpacing=1;align=left;fontStyle=1;verticalAlign=top;" parent="jH4gpe4Tn965D2jjeDOP-300" vertex="1">
          <mxGeometry width="290" height="40" as="geometry">
            <mxRectangle width="290" height="40" as="alternateBounds" />
          </mxGeometry>
        </mxCell>
        <mxCell id="jH4gpe4Tn965D2jjeDOP-302" value="Использовать хранения заказов пользователя&amp;nbsp;" style="shape=partialRectangle;html=1;whiteSpace=wrap;connectable=0;top=0;left=0;bottom=0;right=0;overflow=hidden;fontSize=16;align=left;strokeColor=#666666;verticalAlign=top;" parent="jH4gpe4Tn965D2jjeDOP-300" vertex="1">
          <mxGeometry x="290" width="580" height="40" as="geometry">
            <mxRectangle width="580" height="40" as="alternateBounds" />
          </mxGeometry>
        </mxCell>
      </root>
    </mxGraphModel>
  </diagram>
</mxfile>
